<mxfile host="65bd71144e">
    <diagram id="eStCdfGvINrQO62ILRwt" name="command">
        <mxGraphModel dx="820" dy="465" grid="0" gridSize="10" guides="1" tooltips="1" connect="1" arrows="1" fold="1" page="1" pageScale="1" pageWidth="1100" pageHeight="850" math="0" shadow="0">
            <root>
                <mxCell id="1y5QdFWeuTSCrvDGccdf-0"/>
                <mxCell id="1y5QdFWeuTSCrvDGccdf-1" parent="1y5QdFWeuTSCrvDGccdf-0"/>
                <mxCell id="1y5QdFWeuTSCrvDGccdf-4" style="edgeStyle=orthogonalEdgeStyle;rounded=0;orthogonalLoop=1;jettySize=auto;html=1;exitX=0.5;exitY=0;exitDx=0;exitDy=0;entryX=0.246;entryY=1.018;entryDx=0;entryDy=0;entryPerimeter=0;fontFamily=Ubuntu;fontSize=12;fontColor=#000000;strokeWidth=2;strokeColor=#000000;endArrow=none;endFill=0;" edge="1" parent="1y5QdFWeuTSCrvDGccdf-1" source="1y5QdFWeuTSCrvDGccdf-2" target="1y5QdFWeuTSCrvDGccdf-3">
                    <mxGeometry relative="1" as="geometry"/>
                </mxCell>
                <mxCell id="1y5QdFWeuTSCrvDGccdf-15" style="edgeStyle=orthogonalEdgeStyle;rounded=0;orthogonalLoop=1;jettySize=auto;html=1;exitX=0.5;exitY=1;exitDx=0;exitDy=0;fontFamily=Ubuntu;fontSize=12;fontColor=#000000;startArrow=none;startFill=0;endArrow=open;endFill=0;strokeColor=#000000;strokeWidth=2;" edge="1" parent="1y5QdFWeuTSCrvDGccdf-1" source="1y5QdFWeuTSCrvDGccdf-2" target="1y5QdFWeuTSCrvDGccdf-7">
                    <mxGeometry relative="1" as="geometry"/>
                </mxCell>
                <mxCell id="1y5QdFWeuTSCrvDGccdf-22" style="rounded=0;orthogonalLoop=1;jettySize=auto;html=1;exitX=1;exitY=0.75;exitDx=0;exitDy=0;entryX=0.298;entryY=0;entryDx=0;entryDy=0;fontFamily=Ubuntu;fontSize=12;fontColor=#000000;startArrow=none;startFill=0;endArrow=open;endFill=0;strokeColor=#000000;strokeWidth=2;entryPerimeter=0;dashed=1;" edge="1" parent="1y5QdFWeuTSCrvDGccdf-1" source="1y5QdFWeuTSCrvDGccdf-2" target="1y5QdFWeuTSCrvDGccdf-8">
                    <mxGeometry relative="1" as="geometry"/>
                </mxCell>
                <mxCell id="1y5QdFWeuTSCrvDGccdf-2" value="Client" style="html=1;rounded=1;fillColor=#F0F0F0;strokeColor=#000000;fontFamily=Ubuntu;fontColor=#000000;" vertex="1" parent="1y5QdFWeuTSCrvDGccdf-1">
                    <mxGeometry x="169" y="159" width="110" height="50" as="geometry"/>
                </mxCell>
                <mxCell id="1y5QdFWeuTSCrvDGccdf-21" style="edgeStyle=orthogonalEdgeStyle;rounded=0;orthogonalLoop=1;jettySize=auto;html=1;exitX=0;exitY=0;exitDx=228;exitDy=36;exitPerimeter=0;entryX=0;entryY=0.25;entryDx=0;entryDy=0;fontFamily=Ubuntu;fontSize=12;fontColor=#000000;startArrow=none;startFill=0;endArrow=open;endFill=0;strokeColor=#000000;strokeWidth=2;" edge="1" parent="1y5QdFWeuTSCrvDGccdf-1" source="1y5QdFWeuTSCrvDGccdf-3" target="1y5QdFWeuTSCrvDGccdf-6">
                    <mxGeometry relative="1" as="geometry"/>
                </mxCell>
                <mxCell id="1y5QdFWeuTSCrvDGccdf-3" value="&lt;div style=&quot;&quot;&gt;&lt;span&gt;coppy = new CoppyComand(editor);&lt;/span&gt;&lt;/div&gt;button.setCommand(coppy)" style="shape=note;strokeWidth=1;fontSize=12;size=16;whiteSpace=wrap;html=1;fillColor=#fff2cc;strokeColor=#d6b656;fontColor=#666600;rounded=1;fontFamily=Ubuntu;align=left;spacingLeft=10;" vertex="1" parent="1y5QdFWeuTSCrvDGccdf-1">
                    <mxGeometry x="173" y="71" width="228" height="56" as="geometry"/>
                </mxCell>
                <mxCell id="1y5QdFWeuTSCrvDGccdf-14" style="edgeStyle=orthogonalEdgeStyle;rounded=0;orthogonalLoop=1;jettySize=auto;html=1;exitX=1;exitY=0.5;exitDx=0;exitDy=0;entryX=0;entryY=0.5;entryDx=0;entryDy=0;fontFamily=Ubuntu;fontSize=12;fontColor=#000000;startArrow=none;startFill=0;endArrow=open;endFill=0;strokeColor=#000000;strokeWidth=2;" edge="1" parent="1y5QdFWeuTSCrvDGccdf-1" source="1y5QdFWeuTSCrvDGccdf-6" target="1y5QdFWeuTSCrvDGccdf-10">
                    <mxGeometry relative="1" as="geometry"/>
                </mxCell>
                <mxCell id="1y5QdFWeuTSCrvDGccdf-6" value="&lt;p style=&quot;margin: 0px ; margin-top: 4px ; text-align: center&quot;&gt;&lt;b&gt;Invoker&lt;/b&gt;&lt;/p&gt;&lt;hr size=&quot;1&quot;&gt;&lt;p style=&quot;margin: 0px ; margin-left: 4px&quot;&gt;+ command: Command&lt;/p&gt;&lt;hr size=&quot;1&quot;&gt;&lt;p style=&quot;margin: 0px ; margin-left: 4px&quot;&gt;+ setCommand(com:Command)&lt;/p&gt;&lt;p style=&quot;margin: 0px ; margin-left: 4px&quot;&gt;+ executeCommand()&lt;/p&gt;" style="verticalAlign=top;align=left;overflow=fill;fontSize=12;fontFamily=Ubuntu;html=1;rounded=1;fontColor=#000000;strokeColor=#000000;strokeWidth=1;fillColor=#F0F0F0;" vertex="1" parent="1y5QdFWeuTSCrvDGccdf-1">
                    <mxGeometry x="451" y="79.5" width="188" height="108" as="geometry"/>
                </mxCell>
                <mxCell id="1y5QdFWeuTSCrvDGccdf-20" style="edgeStyle=orthogonalEdgeStyle;rounded=0;orthogonalLoop=1;jettySize=auto;html=1;exitX=0.5;exitY=1;exitDx=0;exitDy=0;entryX=0;entryY=0;entryDx=0;entryDy=0;entryPerimeter=0;fontFamily=Ubuntu;fontSize=12;fontColor=#000000;startArrow=open;startFill=0;endArrow=none;endFill=0;strokeColor=#000000;strokeWidth=2;" edge="1" parent="1y5QdFWeuTSCrvDGccdf-1" source="1y5QdFWeuTSCrvDGccdf-7" target="1y5QdFWeuTSCrvDGccdf-17">
                    <mxGeometry relative="1" as="geometry"/>
                </mxCell>
                <mxCell id="1y5QdFWeuTSCrvDGccdf-7" value="&lt;p style=&quot;margin: 0px ; margin-top: 4px ; text-align: center&quot;&gt;&lt;b&gt;Receiver&lt;/b&gt;&lt;/p&gt;&lt;hr size=&quot;1&quot;&gt;&lt;p style=&quot;margin: 0px ; margin-left: 4px&quot;&gt;...&lt;/p&gt;&lt;hr size=&quot;1&quot;&gt;&lt;p style=&quot;margin: 0px ; margin-left: 4px&quot;&gt;+ operation(params)&lt;/p&gt;" style="verticalAlign=top;align=left;overflow=fill;fontSize=12;fontFamily=Ubuntu;html=1;rounded=1;fontColor=#000000;strokeColor=#000000;strokeWidth=1;fillColor=#F0F0F0;" vertex="1" parent="1y5QdFWeuTSCrvDGccdf-1">
                    <mxGeometry x="269" y="270" width="188" height="109" as="geometry"/>
                </mxCell>
                <mxCell id="1y5QdFWeuTSCrvDGccdf-12" style="edgeStyle=orthogonalEdgeStyle;rounded=0;orthogonalLoop=1;jettySize=auto;html=1;exitX=0.5;exitY=0;exitDx=0;exitDy=0;entryX=0.5;entryY=1;entryDx=0;entryDy=0;fontFamily=Ubuntu;fontSize=12;fontColor=#000000;endArrow=block;endFill=0;strokeColor=#000000;strokeWidth=2;dashed=1;startArrow=none;startFill=0;" edge="1" parent="1y5QdFWeuTSCrvDGccdf-1" source="1y5QdFWeuTSCrvDGccdf-8" target="1y5QdFWeuTSCrvDGccdf-10">
                    <mxGeometry relative="1" as="geometry"/>
                </mxCell>
                <mxCell id="1y5QdFWeuTSCrvDGccdf-18" style="edgeStyle=orthogonalEdgeStyle;rounded=0;orthogonalLoop=1;jettySize=auto;html=1;exitX=0.25;exitY=1;exitDx=0;exitDy=0;entryX=0;entryY=0;entryDx=179;entryDy=0;entryPerimeter=0;fontFamily=Ubuntu;fontSize=12;fontColor=#000000;startArrow=none;startFill=0;endArrow=none;endFill=0;strokeColor=#000000;strokeWidth=2;" edge="1" parent="1y5QdFWeuTSCrvDGccdf-1" source="1y5QdFWeuTSCrvDGccdf-8" target="1y5QdFWeuTSCrvDGccdf-17">
                    <mxGeometry relative="1" as="geometry"/>
                </mxCell>
                <mxCell id="1y5QdFWeuTSCrvDGccdf-8" value="&lt;p style=&quot;margin: 0px ; margin-top: 4px ; text-align: center&quot;&gt;&lt;b&gt;Command1&lt;/b&gt;&lt;/p&gt;&lt;hr size=&quot;1&quot;&gt;&lt;p style=&quot;margin: 0px ; margin-left: 4px&quot;&gt;- receiver&lt;/p&gt;&lt;p style=&quot;margin: 0px ; margin-left: 4px&quot;&gt;- params&lt;/p&gt;&lt;hr size=&quot;1&quot;&gt;&lt;p style=&quot;margin: 0px ; margin-left: 4px&quot;&gt;+ constructor(receiver, params)&lt;/p&gt;&lt;p style=&quot;margin: 0px ; margin-left: 4px&quot;&gt;+ execute()&lt;/p&gt;" style="verticalAlign=top;align=left;overflow=fill;fontSize=12;fontFamily=Ubuntu;html=1;rounded=1;fontColor=#000000;strokeColor=#000000;strokeWidth=1;fillColor=#F0F0F0;" vertex="1" parent="1y5QdFWeuTSCrvDGccdf-1">
                    <mxGeometry x="513" y="268" width="188" height="109" as="geometry"/>
                </mxCell>
                <mxCell id="1y5QdFWeuTSCrvDGccdf-13" style="edgeStyle=orthogonalEdgeStyle;rounded=0;orthogonalLoop=1;jettySize=auto;html=1;entryX=0.5;entryY=1;entryDx=0;entryDy=0;fontFamily=Ubuntu;fontSize=12;fontColor=#000000;endArrow=block;endFill=0;strokeColor=#000000;strokeWidth=2;dashed=1;" edge="1" parent="1y5QdFWeuTSCrvDGccdf-1" source="1y5QdFWeuTSCrvDGccdf-9" target="1y5QdFWeuTSCrvDGccdf-10">
                    <mxGeometry relative="1" as="geometry"/>
                </mxCell>
                <mxCell id="1y5QdFWeuTSCrvDGccdf-9" value="&lt;p style=&quot;margin: 0px ; margin-top: 4px ; text-align: center&quot;&gt;&lt;b&gt;command2&lt;/b&gt;&lt;/p&gt;&lt;hr size=&quot;1&quot;&gt;&lt;p style=&quot;margin: 0px ; margin-left: 4px&quot;&gt;...&lt;br&gt;&lt;/p&gt;&lt;hr size=&quot;1&quot;&gt;&lt;p style=&quot;margin: 0px ; margin-left: 4px&quot;&gt;&lt;span&gt;+ execute()&lt;/span&gt;&lt;br&gt;&lt;/p&gt;" style="verticalAlign=top;align=left;overflow=fill;fontSize=12;fontFamily=Ubuntu;html=1;rounded=1;fontColor=#000000;strokeColor=#000000;strokeWidth=1;fillColor=#F0F0F0;" vertex="1" parent="1y5QdFWeuTSCrvDGccdf-1">
                    <mxGeometry x="796" y="270" width="125" height="94" as="geometry"/>
                </mxCell>
                <mxCell id="1y5QdFWeuTSCrvDGccdf-10" value="&lt;p style=&quot;margin: 0px ; margin-top: 4px ; text-align: center&quot;&gt;&lt;i&gt;&amp;lt;&amp;lt;Interface&amp;gt;&amp;gt;&lt;/i&gt;&lt;br&gt;&lt;b&gt;Command&lt;/b&gt;&lt;/p&gt;&lt;hr size=&quot;1&quot;&gt;&lt;p style=&quot;margin: 0px ; margin-left: 4px&quot;&gt;+ execute()&lt;/p&gt;" style="verticalAlign=top;align=left;overflow=fill;fontSize=12;fontFamily=Ubuntu;html=1;rounded=1;fontColor=#000000;strokeColor=#000000;strokeWidth=1;fillColor=#F0F0F0;" vertex="1" parent="1y5QdFWeuTSCrvDGccdf-1">
                    <mxGeometry x="724" y="97" width="109" height="73" as="geometry"/>
                </mxCell>
                <mxCell id="1y5QdFWeuTSCrvDGccdf-17" value="receiver.operation(prams)&lt;div&gt;&lt;/div&gt;" style="shape=note;strokeWidth=1;fontSize=12;size=16;whiteSpace=wrap;html=1;fillColor=#fff2cc;strokeColor=#d6b656;fontColor=#666600;rounded=1;fontFamily=Ubuntu;align=left;spacingLeft=10;" vertex="1" parent="1y5QdFWeuTSCrvDGccdf-1">
                    <mxGeometry x="374" y="422" width="195" height="36" as="geometry"/>
                </mxCell>
            </root>
        </mxGraphModel>
    </diagram>
    <diagram id="ZOZLKVy7DdJtExmbC58n" name="composite">
        <mxGraphModel dx="820" dy="465" grid="0" gridSize="10" guides="1" tooltips="1" connect="1" arrows="1" fold="1" page="1" pageScale="1" pageWidth="1100" pageHeight="850" math="0" shadow="0">
            <root>
                <mxCell id="E-3uZKWi5WfYjvoKf-Sz-0"/>
                <mxCell id="E-3uZKWi5WfYjvoKf-Sz-1" parent="E-3uZKWi5WfYjvoKf-Sz-0"/>
                <mxCell id="E-3uZKWi5WfYjvoKf-Sz-9" style="edgeStyle=orthogonalEdgeStyle;rounded=0;orthogonalLoop=1;jettySize=auto;html=1;exitX=1;exitY=0.5;exitDx=0;exitDy=0;entryX=0;entryY=0.25;entryDx=0;entryDy=0;fontFamily=Ubuntu;fontColor=#000000;endArrow=open;endFill=0;strokeColor=#000000;strokeWidth=2;" parent="E-3uZKWi5WfYjvoKf-Sz-1" source="E-3uZKWi5WfYjvoKf-Sz-2" target="E-3uZKWi5WfYjvoKf-Sz-3" edge="1">
                    <mxGeometry relative="1" as="geometry"/>
                </mxCell>
                <mxCell id="E-3uZKWi5WfYjvoKf-Sz-2" value="client" style="html=1;rounded=1;fillColor=#F0F0F0;fontColor=#000000;fontFamily=Ubuntu;" parent="E-3uZKWi5WfYjvoKf-Sz-1" vertex="1">
                    <mxGeometry x="106" y="86" width="110" height="50" as="geometry"/>
                </mxCell>
                <mxCell id="E-3uZKWi5WfYjvoKf-Sz-3" value="&lt;p style=&quot;margin: 0px ; margin-top: 4px ; text-align: center&quot;&gt;&lt;i&gt;&amp;lt;&amp;lt;Interface&amp;gt;&amp;gt;&lt;/i&gt;&lt;br&gt;&lt;b&gt;Component&lt;/b&gt;&lt;/p&gt;&lt;hr size=&quot;1&quot;&gt;&lt;p style=&quot;margin: 0px ; margin-left: 4px&quot;&gt;...&lt;/p&gt;&lt;hr size=&quot;1&quot;&gt;&lt;p style=&quot;margin: 0px ; margin-left: 4px&quot;&gt;+ execute(): Type&lt;br&gt;&lt;br&gt;&lt;/p&gt;" style="verticalAlign=top;align=left;overflow=fill;fontSize=12;fontFamily=Ubuntu;html=1;rounded=1;fontColor=#000000;fillColor=#F0F0F0;" parent="E-3uZKWi5WfYjvoKf-Sz-1" vertex="1">
                    <mxGeometry x="352" y="86" width="156" height="102" as="geometry"/>
                </mxCell>
                <mxCell id="E-3uZKWi5WfYjvoKf-Sz-7" style="edgeStyle=orthogonalEdgeStyle;rounded=0;orthogonalLoop=1;jettySize=auto;html=1;exitX=0.5;exitY=0;exitDx=0;exitDy=0;entryX=0.25;entryY=1;entryDx=0;entryDy=0;fontFamily=Ubuntu;fontColor=#000000;strokeWidth=2;strokeColor=#000000;endArrow=block;endFill=0;dashed=1;" parent="E-3uZKWi5WfYjvoKf-Sz-1" source="E-3uZKWi5WfYjvoKf-Sz-5" target="E-3uZKWi5WfYjvoKf-Sz-3" edge="1">
                    <mxGeometry relative="1" as="geometry"/>
                </mxCell>
                <mxCell id="E-3uZKWi5WfYjvoKf-Sz-10" style="edgeStyle=orthogonalEdgeStyle;rounded=0;orthogonalLoop=1;jettySize=auto;html=1;exitX=0.25;exitY=0;exitDx=0;exitDy=0;entryX=0;entryY=0.75;entryDx=0;entryDy=0;fontFamily=Ubuntu;fontColor=#000000;endArrow=open;endFill=0;strokeColor=#000000;strokeWidth=2;startArrow=diamond;startFill=0;" parent="E-3uZKWi5WfYjvoKf-Sz-1" source="E-3uZKWi5WfYjvoKf-Sz-5" target="E-3uZKWi5WfYjvoKf-Sz-3" edge="1">
                    <mxGeometry relative="1" as="geometry"/>
                </mxCell>
                <mxCell id="E-3uZKWi5WfYjvoKf-Sz-16" style="edgeStyle=orthogonalEdgeStyle;rounded=0;orthogonalLoop=1;jettySize=auto;html=1;exitX=0;exitY=0.75;exitDx=0;exitDy=0;entryX=0;entryY=0.5;entryDx=0;entryDy=0;entryPerimeter=0;dashed=1;fontFamily=Ubuntu;fontSize=12;fontColor=#000000;startArrow=none;startFill=0;endArrow=none;endFill=0;strokeColor=#000000;strokeWidth=2;" parent="E-3uZKWi5WfYjvoKf-Sz-1" source="E-3uZKWi5WfYjvoKf-Sz-5" target="E-3uZKWi5WfYjvoKf-Sz-12" edge="1">
                    <mxGeometry relative="1" as="geometry"/>
                </mxCell>
                <mxCell id="E-3uZKWi5WfYjvoKf-Sz-5" value="&lt;p style=&quot;margin: 0px ; margin-top: 4px ; text-align: center&quot;&gt;&lt;b&gt;Composite&lt;/b&gt;&lt;/p&gt;&lt;hr size=&quot;1&quot;&gt;&lt;p style=&quot;margin: 0px ; margin-left: 4px&quot;&gt;+ children: Component[]&lt;/p&gt;&lt;hr size=&quot;1&quot;&gt;&lt;p style=&quot;margin: 0px ; margin-left: 4px&quot;&gt;+ add(com: Component)&lt;/p&gt;&lt;p style=&quot;margin: 0px ; margin-left: 4px&quot;&gt;+ remove(com: Component)&lt;br&gt;&lt;/p&gt;&lt;p style=&quot;margin: 0px ; margin-left: 4px&quot;&gt;+ execute()&lt;br&gt;&lt;/p&gt;" style="verticalAlign=top;align=left;overflow=fill;fontSize=12;fontFamily=Ubuntu;html=1;rounded=1;fontColor=#000000;fillColor=#F0F0F0;" parent="E-3uZKWi5WfYjvoKf-Sz-1" vertex="1">
                    <mxGeometry x="200" y="235" width="200" height="121" as="geometry"/>
                </mxCell>
                <mxCell id="E-3uZKWi5WfYjvoKf-Sz-8" style="edgeStyle=orthogonalEdgeStyle;rounded=0;orthogonalLoop=1;jettySize=auto;html=1;exitX=0.5;exitY=0;exitDx=0;exitDy=0;entryX=0.75;entryY=1;entryDx=0;entryDy=0;fontFamily=Ubuntu;fontColor=#000000;endArrow=block;endFill=0;strokeWidth=2;strokeColor=#000000;dashed=1;" parent="E-3uZKWi5WfYjvoKf-Sz-1" source="E-3uZKWi5WfYjvoKf-Sz-6" target="E-3uZKWi5WfYjvoKf-Sz-3" edge="1">
                    <mxGeometry relative="1" as="geometry"/>
                </mxCell>
                <mxCell id="E-3uZKWi5WfYjvoKf-Sz-15" style="edgeStyle=orthogonalEdgeStyle;rounded=0;orthogonalLoop=1;jettySize=auto;html=1;exitX=0;exitY=0.75;exitDx=0;exitDy=0;entryX=0;entryY=0.5;entryDx=0;entryDy=0;entryPerimeter=0;fontFamily=Ubuntu;fontSize=12;fontColor=#000000;startArrow=none;startFill=0;endArrow=none;endFill=0;strokeColor=#000000;strokeWidth=2;dashed=1;" parent="E-3uZKWi5WfYjvoKf-Sz-1" source="E-3uZKWi5WfYjvoKf-Sz-6" target="E-3uZKWi5WfYjvoKf-Sz-11" edge="1">
                    <mxGeometry relative="1" as="geometry"/>
                </mxCell>
                <mxCell id="E-3uZKWi5WfYjvoKf-Sz-6" value="&lt;p style=&quot;margin: 0px ; margin-top: 4px ; text-align: center&quot;&gt;&lt;b&gt;Leaf&lt;/b&gt;&lt;/p&gt;&lt;hr size=&quot;1&quot;&gt;&lt;p style=&quot;margin: 0px ; margin-left: 4px&quot;&gt;...&lt;/p&gt;&lt;hr size=&quot;1&quot;&gt;&lt;p style=&quot;margin: 0px ; margin-left: 4px&quot;&gt;+ execute()&lt;/p&gt;" style="verticalAlign=top;align=left;overflow=fill;fontSize=12;fontFamily=Ubuntu;html=1;rounded=1;fontColor=#000000;fillColor=#F0F0F0;" parent="E-3uZKWi5WfYjvoKf-Sz-1" vertex="1">
                    <mxGeometry x="496" y="235" width="160" height="79" as="geometry"/>
                </mxCell>
                <mxCell id="E-3uZKWi5WfYjvoKf-Sz-11" value="do some work" style="shape=note;strokeWidth=1;fontSize=12;size=11;whiteSpace=wrap;html=1;fillColor=#fff2cc;strokeColor=#d6b656;fontColor=#666600;rounded=1;fontFamily=Ubuntu;" parent="E-3uZKWi5WfYjvoKf-Sz-1" vertex="1">
                    <mxGeometry x="514" y="358" width="132" height="31" as="geometry"/>
                </mxCell>
                <mxCell id="E-3uZKWi5WfYjvoKf-Sz-12" value="delegates all work for child component" style="shape=note;strokeWidth=1;fontSize=12;size=11;whiteSpace=wrap;html=1;fillColor=#fff2cc;strokeColor=#d6b656;fontColor=#666600;rounded=1;fontFamily=Ubuntu;" parent="E-3uZKWi5WfYjvoKf-Sz-1" vertex="1">
                    <mxGeometry x="202" y="388" width="232" height="36" as="geometry"/>
                </mxCell>
            </root>
        </mxGraphModel>
    </diagram>
    <diagram id="atJ9gLTSuQiNS_jL6g5x" name="facade">
        <mxGraphModel dx="820" dy="465" grid="0" gridSize="10" guides="1" tooltips="1" connect="1" arrows="1" fold="1" page="1" pageScale="1" pageWidth="1100" pageHeight="850" math="0" shadow="0">
            <root>
                <mxCell id="xeQosf45g_zYa2fU2fv5-0"/>
                <mxCell id="xeQosf45g_zYa2fU2fv5-1" parent="xeQosf45g_zYa2fU2fv5-0"/>
                <mxCell id="IjYdGnGdEgg8j0EkpIj4-34" style="edgeStyle=orthogonalEdgeStyle;rounded=0;orthogonalLoop=1;jettySize=auto;html=1;exitX=1;exitY=0.5;exitDx=0;exitDy=0;fontFamily=Ubuntu;fontColor=#000000;endArrow=open;endFill=0;strokeColor=#000000;strokeWidth=2;" parent="xeQosf45g_zYa2fU2fv5-1" source="IjYdGnGdEgg8j0EkpIj4-0" target="IjYdGnGdEgg8j0EkpIj4-2" edge="1">
                    <mxGeometry relative="1" as="geometry"/>
                </mxCell>
                <mxCell id="IjYdGnGdEgg8j0EkpIj4-0" value="client" style="html=1;fillColor=#F0F0F0;fontFamily=Ubuntu;fontColor=#000000;rounded=1;strokeColor=#000000;" parent="xeQosf45g_zYa2fU2fv5-1" vertex="1">
                    <mxGeometry x="134" y="172.5" width="110" height="50" as="geometry"/>
                </mxCell>
                <mxCell id="IjYdGnGdEgg8j0EkpIj4-33" style="edgeStyle=orthogonalEdgeStyle;rounded=0;orthogonalLoop=1;jettySize=auto;html=1;exitX=1;exitY=0.5;exitDx=0;exitDy=0;fontFamily=Ubuntu;fontColor=#000000;strokeWidth=2;strokeColor=#000000;endArrow=open;endFill=0;" parent="xeQosf45g_zYa2fU2fv5-1" source="IjYdGnGdEgg8j0EkpIj4-2" target="IjYdGnGdEgg8j0EkpIj4-3" edge="1">
                    <mxGeometry relative="1" as="geometry"/>
                </mxCell>
                <mxCell id="IjYdGnGdEgg8j0EkpIj4-37" style="edgeStyle=orthogonalEdgeStyle;curved=1;rounded=0;orthogonalLoop=1;jettySize=auto;html=1;exitX=0.25;exitY=1;exitDx=0;exitDy=0;dashed=1;fontFamily=Ubuntu;fontColor=#000000;endArrow=open;endFill=0;strokeColor=#000000;strokeWidth=2;" parent="xeQosf45g_zYa2fU2fv5-1" source="IjYdGnGdEgg8j0EkpIj4-2" target="IjYdGnGdEgg8j0EkpIj4-31" edge="1">
                    <mxGeometry relative="1" as="geometry"/>
                </mxCell>
                <mxCell id="IjYdGnGdEgg8j0EkpIj4-38" style="edgeStyle=orthogonalEdgeStyle;curved=1;rounded=0;orthogonalLoop=1;jettySize=auto;html=1;exitX=0.5;exitY=1;exitDx=0;exitDy=0;entryX=0.75;entryY=0;entryDx=0;entryDy=0;dashed=1;fontFamily=Ubuntu;fontColor=#000000;endArrow=open;endFill=0;strokeColor=#000000;strokeWidth=2;" parent="xeQosf45g_zYa2fU2fv5-1" source="IjYdGnGdEgg8j0EkpIj4-2" target="IjYdGnGdEgg8j0EkpIj4-31" edge="1">
                    <mxGeometry relative="1" as="geometry"/>
                </mxCell>
                <mxCell id="IjYdGnGdEgg8j0EkpIj4-39" style="edgeStyle=orthogonalEdgeStyle;curved=1;rounded=0;orthogonalLoop=1;jettySize=auto;html=1;exitX=0;exitY=1;exitDx=0;exitDy=0;entryX=0.25;entryY=0;entryDx=0;entryDy=0;dashed=1;fontFamily=Ubuntu;fontColor=#000000;endArrow=open;endFill=0;strokeColor=#000000;strokeWidth=2;" parent="xeQosf45g_zYa2fU2fv5-1" source="IjYdGnGdEgg8j0EkpIj4-2" target="IjYdGnGdEgg8j0EkpIj4-31" edge="1">
                    <mxGeometry relative="1" as="geometry"/>
                </mxCell>
                <mxCell id="IjYdGnGdEgg8j0EkpIj4-40" style="edgeStyle=orthogonalEdgeStyle;curved=1;rounded=0;orthogonalLoop=1;jettySize=auto;html=1;exitX=0.75;exitY=1;exitDx=0;exitDy=0;entryX=0.991;entryY=0.086;entryDx=0;entryDy=0;entryPerimeter=0;dashed=1;fontFamily=Ubuntu;fontColor=#000000;endArrow=open;endFill=0;strokeColor=#000000;strokeWidth=2;" parent="xeQosf45g_zYa2fU2fv5-1" source="IjYdGnGdEgg8j0EkpIj4-2" target="IjYdGnGdEgg8j0EkpIj4-31" edge="1">
                    <mxGeometry relative="1" as="geometry"/>
                </mxCell>
                <mxCell id="IjYdGnGdEgg8j0EkpIj4-2" value="&lt;p style=&quot;margin: 0px ; margin-top: 4px ; text-align: center&quot;&gt;&lt;b&gt;Facade&lt;/b&gt;&lt;/p&gt;&lt;hr size=&quot;1&quot;&gt;&lt;p style=&quot;margin: 0px ; margin-left: 4px&quot;&gt;+ linkToSubsystem&lt;/p&gt;&lt;p style=&quot;margin: 0px ; margin-left: 4px&quot;&gt;+ optionalAddtionalFacade&lt;/p&gt;&lt;hr size=&quot;1&quot;&gt;&lt;p style=&quot;margin: 0px ; margin-left: 4px&quot;&gt;+ subsystemOperation()&lt;/p&gt;" style="verticalAlign=top;align=left;overflow=fill;fontSize=12;fontFamily=Ubuntu;html=1;rounded=1;fontColor=#000000;fillColor=#F0F0F0;strokeColor=#000000;" parent="xeQosf45g_zYa2fU2fv5-1" vertex="1">
                    <mxGeometry x="307" y="145" width="174" height="105" as="geometry"/>
                </mxCell>
                <mxCell id="IjYdGnGdEgg8j0EkpIj4-35" style="edgeStyle=orthogonalEdgeStyle;rounded=0;orthogonalLoop=1;jettySize=auto;html=1;exitX=0.25;exitY=1;exitDx=0;exitDy=0;entryX=1;entryY=0.25;entryDx=0;entryDy=0;fontFamily=Ubuntu;fontColor=#000000;endArrow=open;endFill=0;strokeColor=#000000;strokeWidth=2;curved=1;dashed=1;" parent="xeQosf45g_zYa2fU2fv5-1" source="IjYdGnGdEgg8j0EkpIj4-3" target="IjYdGnGdEgg8j0EkpIj4-31" edge="1">
                    <mxGeometry relative="1" as="geometry"/>
                </mxCell>
                <mxCell id="IjYdGnGdEgg8j0EkpIj4-36" style="edgeStyle=orthogonalEdgeStyle;rounded=0;orthogonalLoop=1;jettySize=auto;html=1;exitX=0.5;exitY=1;exitDx=0;exitDy=0;entryX=1;entryY=0.5;entryDx=0;entryDy=0;fontFamily=Ubuntu;fontColor=#000000;endArrow=open;endFill=0;strokeColor=#000000;strokeWidth=2;curved=1;dashed=1;" parent="xeQosf45g_zYa2fU2fv5-1" source="IjYdGnGdEgg8j0EkpIj4-3" target="IjYdGnGdEgg8j0EkpIj4-31" edge="1">
                    <mxGeometry relative="1" as="geometry"/>
                </mxCell>
                <mxCell id="IjYdGnGdEgg8j0EkpIj4-3" value="&lt;p style=&quot;margin: 0px ; margin-top: 4px ; text-align: center&quot;&gt;&lt;b&gt;Addtional Facade&lt;/b&gt;&lt;/p&gt;&lt;hr size=&quot;1&quot;&gt;&lt;p style=&quot;margin: 0px ; margin-left: 4px&quot;&gt;...&lt;/p&gt;&lt;hr size=&quot;1&quot;&gt;&lt;p style=&quot;margin: 0px ; margin-left: 4px&quot;&gt;+ anotherOperation()&lt;/p&gt;" style="verticalAlign=top;align=left;overflow=fill;fontSize=12;fontFamily=Ubuntu;html=1;rounded=1;fontColor=#000000;fillColor=#F0F0F0;strokeColor=#000000;" parent="xeQosf45g_zYa2fU2fv5-1" vertex="1">
                    <mxGeometry x="521" y="152.5" width="160" height="90" as="geometry"/>
                </mxCell>
                <mxCell id="IjYdGnGdEgg8j0EkpIj4-20" value="Subsystem Class" style="html=1;rounded=1;fontFamily=Ubuntu;fontColor=#000000;fillColor=#F0F0F0;strokeColor=#000000;" parent="xeQosf45g_zYa2fU2fv5-1" vertex="1">
                    <mxGeometry x="296" y="343" width="110" height="50" as="geometry"/>
                </mxCell>
                <mxCell id="IjYdGnGdEgg8j0EkpIj4-24" value="Subsystem Class" style="html=1;rounded=1;fontFamily=Ubuntu;fontColor=#000000;fillColor=#F0F0F0;strokeColor=#000000;" parent="xeQosf45g_zYa2fU2fv5-1" vertex="1">
                    <mxGeometry x="341" y="378" width="110" height="50" as="geometry"/>
                </mxCell>
                <mxCell id="IjYdGnGdEgg8j0EkpIj4-25" value="Subsystem Class" style="html=1;rounded=1;fontFamily=Ubuntu;fontColor=#000000;fillColor=#F0F0F0;strokeColor=#000000;" parent="xeQosf45g_zYa2fU2fv5-1" vertex="1">
                    <mxGeometry x="197" y="383" width="110" height="50" as="geometry"/>
                </mxCell>
                <mxCell id="IjYdGnGdEgg8j0EkpIj4-26" value="Subsystem Class" style="html=1;rounded=1;fontFamily=Ubuntu;fontColor=#000000;fillColor=#F0F0F0;strokeColor=#000000;" parent="xeQosf45g_zYa2fU2fv5-1" vertex="1">
                    <mxGeometry x="204" y="356" width="110" height="50" as="geometry"/>
                </mxCell>
                <mxCell id="IjYdGnGdEgg8j0EkpIj4-27" value="Subsystem Class" style="html=1;rounded=1;fontFamily=Ubuntu;fontColor=#000000;fillColor=#F0F0F0;strokeColor=#000000;" parent="xeQosf45g_zYa2fU2fv5-1" vertex="1">
                    <mxGeometry x="293" y="400" width="110" height="50" as="geometry"/>
                </mxCell>
                <mxCell id="IjYdGnGdEgg8j0EkpIj4-28" value="Subsystem Class" style="html=1;rounded=1;fontFamily=Ubuntu;fontColor=#000000;fillColor=#F0F0F0;strokeColor=#000000;" parent="xeQosf45g_zYa2fU2fv5-1" vertex="1">
                    <mxGeometry x="250" y="366" width="110" height="50" as="geometry"/>
                </mxCell>
                <mxCell id="IjYdGnGdEgg8j0EkpIj4-31" value="" style="rounded=1;whiteSpace=wrap;html=1;fontFamily=Ubuntu;fillColor=none;strokeColor=#00CC00;" parent="xeQosf45g_zYa2fU2fv5-1" vertex="1">
                    <mxGeometry x="157" y="312" width="337" height="175" as="geometry"/>
                </mxCell>
            </root>
        </mxGraphModel>
    </diagram>
    <diagram id="8AUOnsUSek6qcx8aSMok" name="brigde">
        <mxGraphModel dx="820" dy="465" grid="0" gridSize="10" guides="1" tooltips="1" connect="1" arrows="1" fold="1" page="1" pageScale="1" pageWidth="850" pageHeight="1100" math="0" shadow="0">
            <root>
                <mxCell id="cvpQXfobqVzujSJdHXTM-0"/>
                <mxCell id="cvpQXfobqVzujSJdHXTM-1" parent="cvpQXfobqVzujSJdHXTM-0"/>
                <mxCell id="cvpQXfobqVzujSJdHXTM-7" style="edgeStyle=orthogonalEdgeStyle;rounded=0;orthogonalLoop=1;jettySize=auto;html=1;exitX=1;exitY=0.5;exitDx=0;exitDy=0;fontFamily=Ubuntu;fontColor=#000000;endArrow=open;endFill=0;strokeColor=#000000;strokeWidth=2;" parent="cvpQXfobqVzujSJdHXTM-1" source="cvpQXfobqVzujSJdHXTM-2" target="cvpQXfobqVzujSJdHXTM-3" edge="1">
                    <mxGeometry relative="1" as="geometry"/>
                </mxCell>
                <mxCell id="cvpQXfobqVzujSJdHXTM-2" value="client" style="html=1;rounded=1;fillColor=#F0F0F0;fontColor=#000000;fontFamily=Ubuntu;" parent="cvpQXfobqVzujSJdHXTM-1" vertex="1">
                    <mxGeometry x="146" y="89" width="86" height="36" as="geometry"/>
                </mxCell>
                <mxCell id="cvpQXfobqVzujSJdHXTM-8" style="edgeStyle=orthogonalEdgeStyle;rounded=0;orthogonalLoop=1;jettySize=auto;html=1;exitX=1;exitY=0.5;exitDx=0;exitDy=0;fontFamily=Ubuntu;fontColor=#000000;endArrow=open;endFill=0;strokeColor=#000000;strokeWidth=2;startArrow=diamondThin;startFill=0;" parent="cvpQXfobqVzujSJdHXTM-1" source="cvpQXfobqVzujSJdHXTM-3" target="cvpQXfobqVzujSJdHXTM-4" edge="1">
                    <mxGeometry relative="1" as="geometry"/>
                </mxCell>
                <mxCell id="cvpQXfobqVzujSJdHXTM-3" value="&lt;p style=&quot;margin: 0px ; margin-top: 4px ; text-align: center&quot;&gt;&lt;b&gt;Abstraction&lt;/b&gt;&lt;/p&gt;&lt;hr size=&quot;1&quot;&gt;&lt;p style=&quot;margin: 0px ; margin-left: 4px&quot;&gt;+ impl: Implementation&lt;/p&gt;&lt;hr size=&quot;1&quot;&gt;&lt;p style=&quot;margin: 0px ; margin-left: 4px&quot;&gt;+ feature(): Type&lt;/p&gt;" style="verticalAlign=top;align=left;overflow=fill;fontSize=12;fontFamily=Helvetica;html=1;rounded=1;fontColor=#000000;fillColor=#F0F0F0;" parent="cvpQXfobqVzujSJdHXTM-1" vertex="1">
                    <mxGeometry x="305" y="62" width="160" height="90" as="geometry"/>
                </mxCell>
                <mxCell id="cvpQXfobqVzujSJdHXTM-4" value="&lt;p style=&quot;margin: 0px ; margin-top: 4px ; text-align: center&quot;&gt;&lt;i&gt;&amp;lt;&amp;lt;Interface&amp;gt;&amp;gt;&lt;/i&gt;&lt;br&gt;&lt;b&gt;Implementation&lt;/b&gt;&lt;/p&gt;&lt;hr size=&quot;1&quot;&gt;&lt;p style=&quot;margin: 0px ; margin-left: 4px&quot;&gt;...&lt;/p&gt;&lt;hr size=&quot;1&quot;&gt;&lt;p style=&quot;margin: 0px ; margin-left: 4px&quot;&gt;+ method1(): Type&lt;br&gt;+ method2(): Type&lt;/p&gt;" style="verticalAlign=top;align=left;overflow=fill;fontSize=12;fontFamily=Helvetica;html=1;rounded=1;fontColor=#000000;fillColor=#F0F0F0;" parent="cvpQXfobqVzujSJdHXTM-1" vertex="1">
                    <mxGeometry x="538" y="50.5" width="190" height="113" as="geometry"/>
                </mxCell>
                <mxCell id="cvpQXfobqVzujSJdHXTM-6" style="edgeStyle=orthogonalEdgeStyle;rounded=0;orthogonalLoop=1;jettySize=auto;html=1;fontFamily=Ubuntu;fontColor=#000000;strokeColor=#000000;strokeWidth=2;endArrow=block;endFill=0;" parent="cvpQXfobqVzujSJdHXTM-1" source="cvpQXfobqVzujSJdHXTM-5" target="cvpQXfobqVzujSJdHXTM-3" edge="1">
                    <mxGeometry relative="1" as="geometry"/>
                </mxCell>
                <mxCell id="cvpQXfobqVzujSJdHXTM-5" value="&lt;p style=&quot;margin: 0px ; margin-top: 4px ; text-align: center&quot;&gt;&lt;b&gt;OtherAbstraction&lt;/b&gt;&lt;/p&gt;&lt;hr size=&quot;1&quot;&gt;&lt;p style=&quot;margin: 0px ; margin-left: 4px&quot;&gt;+ impl: Implementation&lt;/p&gt;&lt;hr size=&quot;1&quot;&gt;&lt;p style=&quot;margin: 0px ; margin-left: 4px&quot;&gt;+ featureN(): Type&lt;/p&gt;" style="verticalAlign=top;align=left;overflow=fill;fontSize=12;fontFamily=Helvetica;html=1;rounded=1;fontColor=#000000;fillColor=#F0F0F0;gradientColor=#ffffff;" parent="cvpQXfobqVzujSJdHXTM-1" vertex="1">
                    <mxGeometry x="305" y="219" width="160" height="90" as="geometry"/>
                </mxCell>
                <mxCell id="cvpQXfobqVzujSJdHXTM-12" style="edgeStyle=orthogonalEdgeStyle;rounded=0;orthogonalLoop=1;jettySize=auto;html=1;fontFamily=Ubuntu;fontColor=#000000;startArrow=none;startFill=0;endArrow=block;endFill=0;strokeColor=#000000;strokeWidth=2;dashed=1;" parent="cvpQXfobqVzujSJdHXTM-1" source="cvpQXfobqVzujSJdHXTM-10" target="cvpQXfobqVzujSJdHXTM-4" edge="1">
                    <mxGeometry relative="1" as="geometry"/>
                </mxCell>
                <mxCell id="cvpQXfobqVzujSJdHXTM-10" value="Concrete Impl" style="html=1;rounded=1;fontFamily=Ubuntu;fontColor=#000000;fillColor=#F0F0F0;" parent="cvpQXfobqVzujSJdHXTM-1" vertex="1">
                    <mxGeometry x="578" y="219" width="110" height="48" as="geometry"/>
                </mxCell>
                <mxCell id="cvpQXfobqVzujSJdHXTM-18" value="" style="group" parent="cvpQXfobqVzujSJdHXTM-1" vertex="1" connectable="0">
                    <mxGeometry x="265" y="13" width="523" height="169" as="geometry"/>
                </mxCell>
                <mxCell id="cvpQXfobqVzujSJdHXTM-15" value="" style="rounded=1;whiteSpace=wrap;html=1;fontFamily=Ubuntu;fontColor=#ffffff;fillColor=none;strokeColor=#6F0000;glass=0;sketch=0;" parent="cvpQXfobqVzujSJdHXTM-18" vertex="1">
                    <mxGeometry width="523" height="169" as="geometry"/>
                </mxCell>
                <mxCell id="cvpQXfobqVzujSJdHXTM-16" value="Bridge" style="text;align=center;fontStyle=1;verticalAlign=middle;spacingLeft=3;spacingRight=3;strokeColor=#6F0000;rotatable=0;points=[[0,0.5],[1,0.5]];portConstraint=eastwest;rounded=1;fontFamily=Ubuntu;fontColor=#ffffff;fillColor=#a20025;" parent="cvpQXfobqVzujSJdHXTM-18" vertex="1">
                    <mxGeometry width="80" height="26" as="geometry"/>
                </mxCell>
                <mxCell id="cvpQXfobqVzujSJdHXTM-20" style="edgeStyle=orthogonalEdgeStyle;rounded=0;orthogonalLoop=1;jettySize=auto;html=1;entryX=0;entryY=0.75;entryDx=0;entryDy=0;dashed=1;fontFamily=Ubuntu;fontColor=#000000;startArrow=none;startFill=0;endArrow=none;endFill=0;strokeColor=#000000;strokeWidth=2;" parent="cvpQXfobqVzujSJdHXTM-1" source="cvpQXfobqVzujSJdHXTM-19" target="cvpQXfobqVzujSJdHXTM-5" edge="1">
                    <mxGeometry relative="1" as="geometry"/>
                </mxCell>
                <mxCell id="cvpQXfobqVzujSJdHXTM-19" value="impl.methodN()" style="shape=note;strokeWidth=1;fontSize=12;size=20;whiteSpace=wrap;html=1;fillColor=#fff2cc;strokeColor=#d6b656;fontColor=#666600;rounded=1;glass=0;sketch=0;fontFamily=Ubuntu;" parent="cvpQXfobqVzujSJdHXTM-1" vertex="1">
                    <mxGeometry x="117" y="264" width="144" height="45" as="geometry"/>
                </mxCell>
            </root>
        </mxGraphModel>
    </diagram>
    <diagram id="DyS3z9NHqWPgZxG_6Q4E" name="adapter">
        <mxGraphModel dx="1670" dy="465" grid="0" gridSize="10" guides="1" tooltips="1" connect="1" arrows="1" fold="1" page="1" pageScale="1" pageWidth="850" pageHeight="1100" math="0" shadow="0">
            <root>
                <mxCell id="v98QxvlGzEK0-zGRg0lu-0"/>
                <mxCell id="v98QxvlGzEK0-zGRg0lu-1" parent="v98QxvlGzEK0-zGRg0lu-0"/>
                <mxCell id="v98QxvlGzEK0-zGRg0lu-11" style="edgeStyle=orthogonalEdgeStyle;rounded=0;orthogonalLoop=1;jettySize=auto;html=1;fontFamily=Ubuntu;fontColor=#000000;endArrow=open;endFill=0;strokeColor=#000000;strokeWidth=2;" parent="v98QxvlGzEK0-zGRg0lu-1" source="v98QxvlGzEK0-zGRg0lu-2" edge="1">
                    <mxGeometry relative="1" as="geometry">
                        <mxPoint x="-537" y="115" as="targetPoint"/>
                    </mxGeometry>
                </mxCell>
                <mxCell id="v98QxvlGzEK0-zGRg0lu-2" value="client" style="html=1;rounded=1;fillColor=#F0F0F0;fontFamily=Ubuntu;fontColor=#000000;" parent="v98QxvlGzEK0-zGRg0lu-1" vertex="1">
                    <mxGeometry x="-742" y="90" width="112" height="50" as="geometry"/>
                </mxCell>
                <mxCell id="v98QxvlGzEK0-zGRg0lu-3" value="&lt;p style=&quot;margin: 0px ; margin-top: 4px ; text-align: center&quot;&gt;&lt;b&gt;Target&lt;/b&gt;&lt;/p&gt;&lt;hr size=&quot;1&quot;&gt;&lt;p style=&quot;margin: 0px ; margin-left: 4px&quot;&gt;...&lt;/p&gt;&lt;hr size=&quot;1&quot;&gt;&lt;p style=&quot;margin: 0px ; margin-left: 4px&quot;&gt;+ method(): Type&lt;/p&gt;" style="verticalAlign=top;align=left;overflow=fill;fontSize=12;fontFamily=Ubuntu;html=1;rounded=1;fontColor=#000000;fillColor=#F0F0F0;" parent="v98QxvlGzEK0-zGRg0lu-1" vertex="1">
                    <mxGeometry x="-535" y="50" width="160" height="90" as="geometry"/>
                </mxCell>
                <mxCell id="v98QxvlGzEK0-zGRg0lu-9" style="edgeStyle=orthogonalEdgeStyle;rounded=0;orthogonalLoop=1;jettySize=auto;html=1;exitX=0.5;exitY=0;exitDx=0;exitDy=0;fontFamily=Ubuntu;fontColor=#000000;endArrow=block;endFill=0;strokeColor=#000000;strokeWidth=2;" parent="v98QxvlGzEK0-zGRg0lu-1" source="v98QxvlGzEK0-zGRg0lu-4" target="v98QxvlGzEK0-zGRg0lu-3" edge="1">
                    <mxGeometry relative="1" as="geometry"/>
                </mxCell>
                <mxCell id="v98QxvlGzEK0-zGRg0lu-10" style="edgeStyle=orthogonalEdgeStyle;rounded=0;orthogonalLoop=1;jettySize=auto;html=1;exitX=1;exitY=0.5;exitDx=0;exitDy=0;fontFamily=Ubuntu;fontColor=#000000;endArrow=open;endFill=0;strokeColor=#000000;strokeWidth=2;" parent="v98QxvlGzEK0-zGRg0lu-1" source="v98QxvlGzEK0-zGRg0lu-4" target="v98QxvlGzEK0-zGRg0lu-5" edge="1">
                    <mxGeometry relative="1" as="geometry"/>
                </mxCell>
                <mxCell id="v98QxvlGzEK0-zGRg0lu-4" value="&lt;p style=&quot;margin: 0px ; margin-top: 4px ; text-align: center&quot;&gt;&lt;b&gt;Adapter&lt;/b&gt;&lt;/p&gt;&lt;hr size=&quot;1&quot;&gt;&lt;p style=&quot;margin: 0px ; margin-left: 4px&quot;&gt;- adaptee: Adaptee&lt;/p&gt;&lt;hr size=&quot;1&quot;&gt;&lt;p style=&quot;margin: 0px ; margin-left: 4px&quot;&gt;+ method(): Type&lt;/p&gt;" style="verticalAlign=top;align=left;overflow=fill;fontSize=12;fontFamily=Ubuntu;html=1;rounded=1;fontColor=#000000;fillColor=#F0F0F0;" parent="v98QxvlGzEK0-zGRg0lu-1" vertex="1">
                    <mxGeometry x="-535" y="195" width="160" height="90" as="geometry"/>
                </mxCell>
                <mxCell id="v98QxvlGzEK0-zGRg0lu-5" value="&lt;p style=&quot;margin: 0px ; margin-top: 4px ; text-align: center&quot;&gt;&lt;b&gt;Adaptee&lt;/b&gt;&lt;/p&gt;&lt;hr size=&quot;1&quot;&gt;&lt;p style=&quot;margin: 0px ; margin-left: 4px&quot;&gt;...&lt;/p&gt;&lt;hr size=&quot;1&quot;&gt;&lt;p style=&quot;margin: 0px ; margin-left: 4px&quot;&gt;+specialMethod(): SpecialType&amp;nbsp;&lt;/p&gt;" style="verticalAlign=top;align=left;overflow=fill;fontSize=12;fontFamily=Ubuntu;html=1;rounded=1;fontColor=#000000;fillColor=#F0F0F0;" parent="v98QxvlGzEK0-zGRg0lu-1" vertex="1">
                    <mxGeometry x="-328" y="195" width="192" height="90" as="geometry"/>
                </mxCell>
                <mxCell id="v98QxvlGzEK0-zGRg0lu-12" style="edgeStyle=orthogonalEdgeStyle;rounded=0;orthogonalLoop=1;jettySize=auto;html=1;entryX=0;entryY=0.75;entryDx=0;entryDy=0;fontFamily=Ubuntu;fontSize=12;fontColor=#000000;endArrow=none;endFill=0;strokeColor=#000000;strokeWidth=2;dashed=1;" parent="v98QxvlGzEK0-zGRg0lu-1" source="v98QxvlGzEK0-zGRg0lu-8" target="v98QxvlGzEK0-zGRg0lu-4" edge="1">
                    <mxGeometry relative="1" as="geometry"/>
                </mxCell>
                <mxCell id="v98QxvlGzEK0-zGRg0lu-8" value="return convertToType(sp: SpecialType): Type&amp;nbsp;" style="shape=note;strokeWidth=2;fontSize=12;size=20;whiteSpace=wrap;html=1;fillColor=#fff2cc;strokeColor=#d6b656;fontColor=#666600;rounded=1;fontFamily=Ubuntu;" parent="v98QxvlGzEK0-zGRg0lu-1" vertex="1">
                    <mxGeometry x="-774" y="315" width="306" height="51" as="geometry"/>
                </mxCell>
            </root>
        </mxGraphModel>
    </diagram>
    <diagram id="wl__rMS_KYxgDseTeLxS" name="singleton">
        <mxGraphModel dx="820" dy="465" grid="0" gridSize="10" guides="1" tooltips="1" connect="1" arrows="1" fold="1" page="1" pageScale="1" pageWidth="850" pageHeight="1100" math="0" shadow="0">
            <root>
                <mxCell id="4qE20IxHlJg36kfOOElW-0"/>
                <mxCell id="4qE20IxHlJg36kfOOElW-1" parent="4qE20IxHlJg36kfOOElW-0"/>
                <mxCell id="4qE20IxHlJg36kfOOElW-6" style="edgeStyle=orthogonalEdgeStyle;rounded=0;orthogonalLoop=1;jettySize=auto;html=1;entryX=0;entryY=0.5;entryDx=0;entryDy=0;fontFamily=Ubuntu;fontColor=#000000;endArrow=open;endFill=0;strokeColor=#000000;strokeWidth=2;" parent="4qE20IxHlJg36kfOOElW-1" source="4qE20IxHlJg36kfOOElW-2" target="4qE20IxHlJg36kfOOElW-3" edge="1">
                    <mxGeometry relative="1" as="geometry"/>
                </mxCell>
                <mxCell id="4qE20IxHlJg36kfOOElW-2" value="Client" style="html=1;rounded=1;fillColor=#F0F0F0;fontFamily=Ubuntu;fontColor=#000000;strokeColor=#000000;strokeWidth=2;" parent="4qE20IxHlJg36kfOOElW-1" vertex="1">
                    <mxGeometry x="187" y="104" width="110" height="50" as="geometry"/>
                </mxCell>
                <mxCell id="4qE20IxHlJg36kfOOElW-7" style="edgeStyle=orthogonalEdgeStyle;rounded=0;orthogonalLoop=1;jettySize=auto;html=1;exitX=0.5;exitY=1;exitDx=0;exitDy=0;entryX=0.328;entryY=0.009;entryDx=0;entryDy=0;entryPerimeter=0;fontFamily=Ubuntu;fontColor=#000000;endArrow=none;endFill=0;strokeColor=#000000;strokeWidth=2;dashed=1;" parent="4qE20IxHlJg36kfOOElW-1" source="4qE20IxHlJg36kfOOElW-3" target="4qE20IxHlJg36kfOOElW-4" edge="1">
                    <mxGeometry relative="1" as="geometry"/>
                </mxCell>
                <mxCell id="4qE20IxHlJg36kfOOElW-3" value="&lt;p style=&quot;margin: 0px ; margin-top: 4px ; text-align: center&quot;&gt;&lt;b&gt;Singleton&lt;/b&gt;&lt;/p&gt;&lt;hr size=&quot;1&quot;&gt;&lt;p style=&quot;margin: 0px ; margin-left: 4px&quot;&gt;- instance: Singleton&lt;/p&gt;&lt;hr size=&quot;1&quot;&gt;&lt;p style=&quot;margin: 0px ; margin-left: 4px&quot;&gt;+ getInstance(): Singleton&lt;/p&gt;" style="verticalAlign=top;align=left;overflow=fill;fontSize=12;fontFamily=Ubuntu;html=1;rounded=1;fontColor=#000000;fillColor=#F0F0F0;strokeWidth=2;strokeColor=#000000;" parent="4qE20IxHlJg36kfOOElW-1" vertex="1">
                    <mxGeometry x="369" y="84" width="160" height="90" as="geometry"/>
                </mxCell>
                <mxCell id="4qE20IxHlJg36kfOOElW-4" value="&lt;div&gt;&lt;span&gt;if(!this.instance) {&lt;/span&gt;&lt;/div&gt;&amp;nbsp; &amp;nbsp; this.instance&amp;nbsp; = new Singleton()&lt;br&gt;}&lt;br&gt;return this.instance" style="shape=note;strokeWidth=2;fontSize=14;size=20;whiteSpace=wrap;html=1;fillColor=#fff2cc;fontColor=#666600;rounded=1;fontFamily=Ubuntu;align=left;strokeColor=#000000;spacingTop=0;spacingLeft=9;" parent="4qE20IxHlJg36kfOOElW-1" vertex="1">
                    <mxGeometry x="369" y="202" width="241" height="110" as="geometry"/>
                </mxCell>
                <mxCell id="4qE20IxHlJg36kfOOElW-5" style="edgeStyle=orthogonalEdgeStyle;rounded=0;orthogonalLoop=1;jettySize=auto;html=1;exitX=1;exitY=0.75;exitDx=0;exitDy=0;entryX=1;entryY=0.25;entryDx=0;entryDy=0;fontFamily=Ubuntu;fontColor=#000000;strokeColor=#000000;strokeWidth=2;endArrow=open;endFill=0;" parent="4qE20IxHlJg36kfOOElW-1" source="4qE20IxHlJg36kfOOElW-3" target="4qE20IxHlJg36kfOOElW-3" edge="1">
                    <mxGeometry relative="1" as="geometry"/>
                </mxCell>
            </root>
        </mxGraphModel>
    </diagram>
    <diagram id="Lsz0UcWjnIkj7TLm13H3" name="prototype">
        <mxGraphModel dx="820" dy="465" grid="0" gridSize="10" guides="1" tooltips="1" connect="1" arrows="1" fold="1" page="1" pageScale="1" pageWidth="850" pageHeight="1100" math="0" shadow="0">
            <root>
                <mxCell id="abWGYvZpTCwzV9ggsT0R-0"/>
                <mxCell id="abWGYvZpTCwzV9ggsT0R-1" parent="abWGYvZpTCwzV9ggsT0R-0"/>
                <mxCell id="abWGYvZpTCwzV9ggsT0R-4" style="edgeStyle=orthogonalEdgeStyle;rounded=0;orthogonalLoop=1;jettySize=auto;html=1;exitX=1;exitY=0.5;exitDx=0;exitDy=0;fontColor=#000000;strokeColor=#000000;strokeWidth=2;endArrow=open;endFill=0;fontFamily=Ubuntu;" parent="abWGYvZpTCwzV9ggsT0R-1" source="abWGYvZpTCwzV9ggsT0R-2" target="abWGYvZpTCwzV9ggsT0R-3" edge="1">
                    <mxGeometry relative="1" as="geometry"/>
                </mxCell>
                <mxCell id="abWGYvZpTCwzV9ggsT0R-2" value="client" style="html=1;rounded=1;fillColor=#F0F0F0;fontColor=#000000;strokeWidth=2;strokeColor=#000000;fontFamily=Ubuntu;" parent="abWGYvZpTCwzV9ggsT0R-1" vertex="1">
                    <mxGeometry x="109" y="103" width="110" height="50" as="geometry"/>
                </mxCell>
                <mxCell id="abWGYvZpTCwzV9ggsT0R-3" value="&lt;p style=&quot;margin: 0px ; margin-top: 4px ; text-align: center&quot;&gt;&lt;i&gt;&amp;lt;&amp;lt;Interface&amp;gt;&amp;gt;&lt;/i&gt;&lt;br&gt;&lt;b&gt;Prototype&lt;/b&gt;&lt;/p&gt;&lt;hr size=&quot;1&quot;&gt;&lt;p style=&quot;margin: 0px ; margin-left: 4px&quot;&gt;...&lt;/p&gt;&lt;hr size=&quot;1&quot;&gt;&lt;p style=&quot;margin: 0px ; margin-left: 4px&quot;&gt;+ clone(): Prototype&lt;br&gt;&lt;/p&gt;" style="verticalAlign=top;align=left;overflow=fill;fontSize=12;fontFamily=Ubuntu;html=1;rounded=1;fontColor=#000000;fillColor=#F0F0F0;strokeWidth=2;strokeColor=#000000;" parent="abWGYvZpTCwzV9ggsT0R-1" vertex="1">
                    <mxGeometry x="334" y="79.5" width="148" height="97" as="geometry"/>
                </mxCell>
                <mxCell id="abWGYvZpTCwzV9ggsT0R-8" style="edgeStyle=orthogonalEdgeStyle;rounded=0;orthogonalLoop=1;jettySize=auto;html=1;exitX=0;exitY=0.5;exitDx=0;exitDy=0;fontColor=#000000;endArrow=block;endFill=0;strokeColor=#000000;strokeWidth=2;dashed=1;fontFamily=Ubuntu;" parent="abWGYvZpTCwzV9ggsT0R-1" source="abWGYvZpTCwzV9ggsT0R-6" edge="1">
                    <mxGeometry relative="1" as="geometry">
                        <mxPoint x="485" y="128" as="targetPoint"/>
                    </mxGeometry>
                </mxCell>
                <mxCell id="abWGYvZpTCwzV9ggsT0R-12" style="edgeStyle=orthogonalEdgeStyle;rounded=0;orthogonalLoop=1;jettySize=auto;html=1;exitX=0;exitY=0.75;exitDx=0;exitDy=0;entryX=1;entryY=1;entryDx=0;entryDy=0;entryPerimeter=0;fontFamily=Ubuntu;fontSize=12;fontColor=#000000;endArrow=none;endFill=0;strokeColor=#000000;strokeWidth=2;dashed=1;" parent="abWGYvZpTCwzV9ggsT0R-1" source="abWGYvZpTCwzV9ggsT0R-6" target="abWGYvZpTCwzV9ggsT0R-11" edge="1">
                    <mxGeometry relative="1" as="geometry"/>
                </mxCell>
                <mxCell id="abWGYvZpTCwzV9ggsT0R-6" value="&lt;p style=&quot;margin: 0px ; margin-top: 4px ; text-align: center&quot;&gt;&lt;b&gt;ConcretePrototype&lt;/b&gt;&lt;/p&gt;&lt;hr size=&quot;1&quot;&gt;&lt;p style=&quot;margin: 0px ; margin-left: 4px&quot;&gt;...&lt;/p&gt;&lt;hr size=&quot;1&quot;&gt;&lt;p style=&quot;margin: 0px ; margin-left: 4px&quot;&gt;+ clone(): ConcretePrototype&lt;/p&gt;" style="verticalAlign=top;align=left;overflow=fill;fontSize=12;fontFamily=Ubuntu;html=1;rounded=1;fontColor=#000000;strokeColor=#000000;strokeWidth=2;fillColor=#F0F0F0;" parent="abWGYvZpTCwzV9ggsT0R-1" vertex="1">
                    <mxGeometry x="552" y="83" width="209" height="90" as="geometry"/>
                </mxCell>
                <mxCell id="abWGYvZpTCwzV9ggsT0R-9" style="edgeStyle=orthogonalEdgeStyle;rounded=0;orthogonalLoop=1;jettySize=auto;html=1;exitX=0.5;exitY=0;exitDx=0;exitDy=0;fontColor=#000000;endArrow=block;endFill=0;strokeColor=#000000;strokeWidth=2;fontFamily=Ubuntu;" parent="abWGYvZpTCwzV9ggsT0R-1" source="abWGYvZpTCwzV9ggsT0R-7" target="abWGYvZpTCwzV9ggsT0R-6" edge="1">
                    <mxGeometry relative="1" as="geometry"/>
                </mxCell>
                <mxCell id="abWGYvZpTCwzV9ggsT0R-14" style="edgeStyle=orthogonalEdgeStyle;rounded=0;orthogonalLoop=1;jettySize=auto;html=1;exitX=0;exitY=0.75;exitDx=0;exitDy=0;entryX=0;entryY=0;entryDx=253;entryDy=20;entryPerimeter=0;fontFamily=Ubuntu;fontSize=12;fontColor=#000000;endArrow=none;endFill=0;strokeColor=#000000;strokeWidth=2;dashed=1;" parent="abWGYvZpTCwzV9ggsT0R-1" source="abWGYvZpTCwzV9ggsT0R-7" target="abWGYvZpTCwzV9ggsT0R-10" edge="1">
                    <mxGeometry relative="1" as="geometry"/>
                </mxCell>
                <mxCell id="abWGYvZpTCwzV9ggsT0R-7" value="&lt;p style=&quot;margin: 0px ; margin-top: 4px ; text-align: center&quot;&gt;&lt;b&gt;SubclassPrototype&lt;/b&gt;&lt;/p&gt;&lt;hr size=&quot;1&quot;&gt;&lt;p style=&quot;margin: 0px ; margin-left: 4px&quot;&gt;...&lt;/p&gt;&lt;hr size=&quot;1&quot;&gt;&lt;p style=&quot;margin: 0px ; margin-left: 4px&quot;&gt;+ clone(): SubclassPrototype&lt;/p&gt;" style="verticalAlign=top;align=left;overflow=fill;fontSize=12;fontFamily=Ubuntu;html=1;rounded=1;fontColor=#000000;strokeColor=#000000;strokeWidth=2;fillColor=#F0F0F0;" parent="abWGYvZpTCwzV9ggsT0R-1" vertex="1">
                    <mxGeometry x="552" y="243" width="209" height="90" as="geometry"/>
                </mxCell>
                <mxCell id="abWGYvZpTCwzV9ggsT0R-10" value="return new SubclassPrototype(this)" style="shape=note;strokeWidth=2;fontSize=12;size=20;whiteSpace=wrap;html=1;fillColor=#fff2cc;strokeColor=#d6b656;fontColor=#666600;rounded=1;fontFamily=Ubuntu;" parent="abWGYvZpTCwzV9ggsT0R-1" vertex="1">
                    <mxGeometry x="219" y="291" width="253" height="35" as="geometry"/>
                </mxCell>
                <mxCell id="abWGYvZpTCwzV9ggsT0R-11" value="return new ConcretePrototype(this)" style="shape=note;strokeWidth=2;fontSize=12;size=20;whiteSpace=wrap;html=1;fillColor=#fff2cc;strokeColor=#d6b656;fontColor=#666600;rounded=1;fontFamily=Ubuntu;" parent="abWGYvZpTCwzV9ggsT0R-1" vertex="1">
                    <mxGeometry x="229" y="204" width="246" height="35" as="geometry"/>
                </mxCell>
            </root>
        </mxGraphModel>
    </diagram>
    <diagram id="ECFXusUilC4TYmSYKv5q" name="builder">
        <mxGraphModel dx="1406" dy="465" grid="0" gridSize="10" guides="1" tooltips="1" connect="1" arrows="1" fold="1" page="1" pageScale="1" pageWidth="850" pageHeight="1100" math="0" shadow="0">
            <root>
                <mxCell id="3QghXPuivpv_0uSqi6PT-0"/>
                <mxCell id="3QghXPuivpv_0uSqi6PT-1" parent="3QghXPuivpv_0uSqi6PT-0"/>
                <mxCell id="3QghXPuivpv_0uSqi6PT-2" value="&lt;b&gt;Product1&lt;/b&gt;" style="html=1;rounded=1;strokeColor=#000000;strokeWidth=2;fillColor=#F0F0F0;fontFamily=Ubuntu;fontColor=#000000;" parent="3QghXPuivpv_0uSqi6PT-1" vertex="1">
                    <mxGeometry x="-841" y="106" width="110" height="50" as="geometry"/>
                </mxCell>
                <mxCell id="3QghXPuivpv_0uSqi6PT-3" value="&lt;b&gt;Product2&lt;/b&gt;" style="html=1;rounded=1;strokeColor=#000000;strokeWidth=2;fillColor=#F0F0F0;fontFamily=Ubuntu;fontColor=#000000;" parent="3QghXPuivpv_0uSqi6PT-1" vertex="1">
                    <mxGeometry x="-841" y="376" width="110" height="50" as="geometry"/>
                </mxCell>
                <mxCell id="3QghXPuivpv_0uSqi6PT-20" style="edgeStyle=orthogonalEdgeStyle;rounded=0;orthogonalLoop=1;jettySize=auto;html=1;exitX=0;exitY=0.75;exitDx=0;exitDy=0;entryX=0.5;entryY=1;entryDx=0;entryDy=0;fontFamily=Ubuntu;fontColor=#000000;endArrow=open;endFill=0;strokeColor=#000000;strokeWidth=2;" parent="3QghXPuivpv_0uSqi6PT-1" source="3QghXPuivpv_0uSqi6PT-4" target="3QghXPuivpv_0uSqi6PT-2" edge="1">
                    <mxGeometry relative="1" as="geometry"/>
                </mxCell>
                <mxCell id="3QghXPuivpv_0uSqi6PT-22" style="edgeStyle=orthogonalEdgeStyle;rounded=0;orthogonalLoop=1;jettySize=auto;html=1;exitX=1;exitY=0.25;exitDx=0;exitDy=0;entryX=0.25;entryY=0;entryDx=0;entryDy=0;fontFamily=Ubuntu;fontColor=#000000;endArrow=block;endFill=0;strokeColor=#000000;strokeWidth=2;dashed=1;" parent="3QghXPuivpv_0uSqi6PT-1" source="3QghXPuivpv_0uSqi6PT-4" target="3QghXPuivpv_0uSqi6PT-5" edge="1">
                    <mxGeometry relative="1" as="geometry"/>
                </mxCell>
                <mxCell id="3QghXPuivpv_0uSqi6PT-4" value="&lt;p style=&quot;margin: 0px ; margin-top: 4px ; text-align: center&quot;&gt;&lt;b&gt;ConcreteBuilder1&lt;/b&gt;&lt;/p&gt;&lt;hr size=&quot;1&quot;&gt;&lt;p style=&quot;margin: 0px ; margin-left: 4px&quot;&gt;- product1: Product1&lt;/p&gt;&lt;hr size=&quot;1&quot;&gt;&lt;p style=&quot;margin: 0px 0px 0px 4px&quot;&gt;+ reset()&lt;/p&gt;&lt;p style=&quot;margin: 0px 0px 0px 4px&quot;&gt;+ createComponentA(): Void&lt;br&gt;+ createComponentB(): Void&lt;/p&gt;&lt;p style=&quot;margin: 0px 0px 0px 4px&quot;&gt;+ createComponentC(): Void&lt;/p&gt;&lt;p style=&quot;margin: 0px 0px 0px 4px&quot;&gt;+ getResult(): Product1&lt;/p&gt;" style="verticalAlign=top;align=left;overflow=fill;fontSize=12;fontFamily=Ubuntu;html=1;rounded=1;fontColor=#000000;strokeColor=#000000;strokeWidth=2;fillColor=#F0F0F0;" parent="3QghXPuivpv_0uSqi6PT-1" vertex="1">
                    <mxGeometry x="-718" y="106" width="195" height="142" as="geometry"/>
                </mxCell>
                <mxCell id="3QghXPuivpv_0uSqi6PT-5" value="&lt;p style=&quot;margin: 0px ; margin-top: 4px ; text-align: center&quot;&gt;&lt;i&gt;&amp;lt;&amp;lt;Interface&amp;gt;&amp;gt;&lt;/i&gt;&lt;br&gt;&lt;b&gt;Builder&lt;/b&gt;&lt;/p&gt;&lt;hr size=&quot;1&quot;&gt;&lt;p style=&quot;margin: 0px ; margin-left: 4px&quot;&gt;...&lt;/p&gt;&lt;hr size=&quot;1&quot;&gt;&lt;p style=&quot;margin: 0px ; margin-left: 4px&quot;&gt;+ reset()&lt;/p&gt;&lt;p style=&quot;margin: 0px ; margin-left: 4px&quot;&gt;+ createComponentA(): Type&lt;br&gt;+ createComponentB(): Type&lt;/p&gt;&lt;p style=&quot;margin: 0px ; margin-left: 4px&quot;&gt;+ createComponentC(): Type&lt;/p&gt;" style="verticalAlign=top;align=left;overflow=fill;fontSize=12;fontFamily=Ubuntu;html=1;rounded=1;fontColor=#000000;strokeColor=#000000;strokeWidth=2;fillColor=#F0F0F0;" parent="3QghXPuivpv_0uSqi6PT-1" vertex="1">
                    <mxGeometry x="-484" y="193" width="190" height="143" as="geometry"/>
                </mxCell>
                <mxCell id="3QghXPuivpv_0uSqi6PT-17" style="edgeStyle=orthogonalEdgeStyle;rounded=0;orthogonalLoop=1;jettySize=auto;html=1;exitX=0;exitY=0.5;exitDx=0;exitDy=0;entryX=1;entryY=0.448;entryDx=0;entryDy=0;entryPerimeter=0;fontFamily=Ubuntu;fontColor=#000000;endArrow=open;endFill=0;strokeColor=#000000;strokeWidth=2;" parent="3QghXPuivpv_0uSqi6PT-1" source="3QghXPuivpv_0uSqi6PT-6" target="3QghXPuivpv_0uSqi6PT-5" edge="1">
                    <mxGeometry relative="1" as="geometry"/>
                </mxCell>
                <mxCell id="3QghXPuivpv_0uSqi6PT-6" value="&lt;p style=&quot;margin: 0px ; margin-top: 4px ; text-align: center&quot;&gt;&lt;b&gt;Director&lt;/b&gt;&lt;/p&gt;&lt;hr size=&quot;1&quot;&gt;&lt;p style=&quot;margin: 0px ; margin-left: 4px&quot;&gt;+ builder: Builder&lt;/p&gt;&lt;hr size=&quot;1&quot;&gt;&lt;p style=&quot;margin: 0px ; margin-left: 4px&quot;&gt;+ constructure(buider: Builder)&lt;/p&gt;&lt;p style=&quot;margin: 0px ; margin-left: 4px&quot;&gt;+ setBuilder(builder:Builder)&lt;/p&gt;&lt;p style=&quot;margin: 0px ; margin-left: 4px&quot;&gt;+ make(type: Type)&lt;/p&gt;" style="verticalAlign=top;align=left;overflow=fill;fontSize=12;fontFamily=Ubuntu;html=1;rounded=1;fontColor=#000000;strokeColor=#000000;strokeWidth=2;fillColor=#F0F0F0;" parent="3QghXPuivpv_0uSqi6PT-1" vertex="1">
                    <mxGeometry x="-228" y="193" width="173" height="127.5" as="geometry"/>
                </mxCell>
                <mxCell id="3QghXPuivpv_0uSqi6PT-21" style="edgeStyle=orthogonalEdgeStyle;rounded=0;orthogonalLoop=1;jettySize=auto;html=1;exitX=0;exitY=0.25;exitDx=0;exitDy=0;entryX=0.5;entryY=0;entryDx=0;entryDy=0;fontFamily=Ubuntu;fontColor=#000000;endArrow=open;endFill=0;strokeColor=#000000;strokeWidth=2;" parent="3QghXPuivpv_0uSqi6PT-1" source="3QghXPuivpv_0uSqi6PT-9" target="3QghXPuivpv_0uSqi6PT-3" edge="1">
                    <mxGeometry relative="1" as="geometry"/>
                </mxCell>
                <mxCell id="3QghXPuivpv_0uSqi6PT-23" style="edgeStyle=orthogonalEdgeStyle;rounded=0;orthogonalLoop=1;jettySize=auto;html=1;exitX=1;exitY=0.75;exitDx=0;exitDy=0;entryX=0.25;entryY=1;entryDx=0;entryDy=0;fontFamily=Ubuntu;fontColor=#000000;endArrow=block;endFill=0;strokeColor=#000000;strokeWidth=2;dashed=1;" parent="3QghXPuivpv_0uSqi6PT-1" source="3QghXPuivpv_0uSqi6PT-9" target="3QghXPuivpv_0uSqi6PT-5" edge="1">
                    <mxGeometry relative="1" as="geometry"/>
                </mxCell>
                <mxCell id="3QghXPuivpv_0uSqi6PT-9" value="&lt;p style=&quot;margin: 0px ; margin-top: 4px ; text-align: center&quot;&gt;&lt;b&gt;ConcreteBuilder2&lt;/b&gt;&lt;/p&gt;&lt;hr size=&quot;1&quot;&gt;&lt;p style=&quot;margin: 0px ; margin-left: 4px&quot;&gt;- product: Product2&lt;/p&gt;&lt;hr size=&quot;1&quot;&gt;&lt;p style=&quot;margin: 0px 0px 0px 4px&quot;&gt;+ reset()&lt;/p&gt;&lt;p style=&quot;margin: 0px 0px 0px 4px&quot;&gt;+ createComponentA(): Void&lt;br&gt;+ createComponentB(): Void&lt;/p&gt;&lt;p style=&quot;margin: 0px 0px 0px 4px&quot;&gt;+ createComponentC(): Void&lt;/p&gt;&lt;p style=&quot;margin: 0px 0px 0px 4px&quot;&gt;+ getResult(): Product2&lt;/p&gt;" style="verticalAlign=top;align=left;overflow=fill;fontSize=12;fontFamily=Ubuntu;html=1;rounded=1;fontColor=#000000;strokeColor=#000000;strokeWidth=2;fillColor=#F0F0F0;" parent="3QghXPuivpv_0uSqi6PT-1" vertex="1">
                    <mxGeometry x="-718" y="284" width="195" height="142" as="geometry"/>
                </mxCell>
                <mxCell id="3QghXPuivpv_0uSqi6PT-24" style="edgeStyle=orthogonalEdgeStyle;rounded=0;orthogonalLoop=1;jettySize=auto;html=1;exitX=0;exitY=0.5;exitDx=0;exitDy=0;entryX=0.5;entryY=0;entryDx=0;entryDy=0;dashed=1;fontFamily=Ubuntu;fontColor=#000000;endArrow=open;endFill=0;strokeColor=#000000;strokeWidth=2;" parent="3QghXPuivpv_0uSqi6PT-1" source="3QghXPuivpv_0uSqi6PT-18" target="3QghXPuivpv_0uSqi6PT-4" edge="1">
                    <mxGeometry relative="1" as="geometry"/>
                </mxCell>
                <mxCell id="3QghXPuivpv_0uSqi6PT-25" style="edgeStyle=orthogonalEdgeStyle;rounded=0;orthogonalLoop=1;jettySize=auto;html=1;exitX=1;exitY=0.5;exitDx=0;exitDy=0;fontFamily=Ubuntu;fontColor=#000000;endArrow=open;endFill=0;strokeColor=#000000;strokeWidth=2;" parent="3QghXPuivpv_0uSqi6PT-1" source="3QghXPuivpv_0uSqi6PT-18" target="3QghXPuivpv_0uSqi6PT-6" edge="1">
                    <mxGeometry relative="1" as="geometry"/>
                </mxCell>
                <mxCell id="3QghXPuivpv_0uSqi6PT-18" value="Client" style="html=1;rounded=1;fontFamily=Ubuntu;fontColor=#000000;strokeColor=#000000;strokeWidth=2;fillColor=#F0F0F0;" parent="3QghXPuivpv_0uSqi6PT-1" vertex="1">
                    <mxGeometry x="-457" y="31" width="110" height="50" as="geometry"/>
                </mxCell>
            </root>
        </mxGraphModel>
    </diagram>
    <diagram id="XoLUFToCD8K68ObMGiMP" name="factory method">
        <mxGraphModel dx="579" dy="465" grid="0" gridSize="10" guides="1" tooltips="1" connect="1" arrows="1" fold="1" page="0" pageScale="1" pageWidth="850" pageHeight="1100" math="0" shadow="0">
            <root>
                <mxCell id="DUS8zbMLbZhFr8fKmbkd-0"/>
                <mxCell id="DUS8zbMLbZhFr8fKmbkd-1" parent="DUS8zbMLbZhFr8fKmbkd-0"/>
                <mxCell id="DUS8zbMLbZhFr8fKmbkd-29" value="" style="edgeStyle=orthogonalEdgeStyle;rounded=0;orthogonalLoop=1;jettySize=auto;html=1;dashed=1;fontFamily=Ubuntu;fontSize=12;fontColor=#000000;endArrow=block;endFill=0;strokeColor=#000000;strokeWidth=2;" parent="DUS8zbMLbZhFr8fKmbkd-1" source="DUS8zbMLbZhFr8fKmbkd-2" target="DUS8zbMLbZhFr8fKmbkd-3" edge="1">
                    <mxGeometry relative="1" as="geometry"/>
                </mxCell>
                <mxCell id="DUS8zbMLbZhFr8fKmbkd-2" value="«interface»&lt;br&gt;&lt;b&gt;Product&lt;/b&gt;" style="html=1;fillColor=#F0F0F0;fontFamily=Ubuntu;fontColor=#000000;rounded=1;strokeColor=#000000;strokeWidth=2;" parent="DUS8zbMLbZhFr8fKmbkd-1" vertex="1">
                    <mxGeometry x="515" y="538.5" width="110" height="50" as="geometry"/>
                </mxCell>
                <mxCell id="DUS8zbMLbZhFr8fKmbkd-27" style="edgeStyle=orthogonalEdgeStyle;rounded=0;orthogonalLoop=1;jettySize=auto;html=1;dashed=1;fontFamily=Ubuntu;fontSize=12;fontColor=#000000;endArrow=block;endFill=0;strokeColor=#000000;strokeWidth=2;" parent="DUS8zbMLbZhFr8fKmbkd-1" source="DUS8zbMLbZhFr8fKmbkd-3" target="DUS8zbMLbZhFr8fKmbkd-2" edge="1">
                    <mxGeometry relative="1" as="geometry"/>
                </mxCell>
                <mxCell id="DUS8zbMLbZhFr8fKmbkd-3" value="&lt;p style=&quot;margin: 0px ; margin-top: 4px ; text-align: center&quot;&gt;&lt;b&gt;Product1&lt;/b&gt;&lt;/p&gt;&lt;hr size=&quot;1&quot;&gt;&lt;p style=&quot;margin: 0px ; margin-left: 4px&quot;&gt;...&lt;/p&gt;&lt;hr size=&quot;1&quot;&gt;&lt;p style=&quot;margin: 0px ; margin-left: 4px&quot;&gt;+ doStuff(): Type&lt;/p&gt;" style="verticalAlign=top;align=left;overflow=fill;fontSize=12;fontFamily=Ubuntu;html=1;rounded=1;fontColor=#000000;fillColor=#F0F0F0;strokeColor=#000000;strokeWidth=2;" parent="DUS8zbMLbZhFr8fKmbkd-1" vertex="1">
                    <mxGeometry x="490" y="394" width="160" height="90" as="geometry"/>
                </mxCell>
                <mxCell id="DUS8zbMLbZhFr8fKmbkd-28" style="edgeStyle=orthogonalEdgeStyle;rounded=0;orthogonalLoop=1;jettySize=auto;html=1;exitX=0.5;exitY=0;exitDx=0;exitDy=0;dashed=1;fontFamily=Ubuntu;fontSize=12;fontColor=#000000;endArrow=block;endFill=0;strokeColor=#000000;strokeWidth=2;" parent="DUS8zbMLbZhFr8fKmbkd-1" source="DUS8zbMLbZhFr8fKmbkd-4" edge="1">
                    <mxGeometry relative="1" as="geometry">
                        <mxPoint x="574" y="591" as="targetPoint"/>
                    </mxGeometry>
                </mxCell>
                <mxCell id="DUS8zbMLbZhFr8fKmbkd-4" value="&lt;p style=&quot;margin: 0px ; margin-top: 4px ; text-align: center&quot;&gt;&lt;b&gt;Product2&lt;/b&gt;&lt;/p&gt;&lt;hr size=&quot;1&quot;&gt;&lt;p style=&quot;margin: 0px ; margin-left: 4px&quot;&gt;...&lt;/p&gt;&lt;hr size=&quot;1&quot;&gt;&lt;p style=&quot;margin: 0px ; margin-left: 4px&quot;&gt;+ doStuff(): Type&lt;/p&gt;" style="verticalAlign=top;align=left;overflow=fill;fontSize=12;fontFamily=Ubuntu;html=1;rounded=1;fontColor=#000000;fillColor=#F0F0F0;strokeColor=#000000;strokeWidth=2;" parent="DUS8zbMLbZhFr8fKmbkd-1" vertex="1">
                    <mxGeometry x="494" y="650" width="160" height="90" as="geometry"/>
                </mxCell>
                <mxCell id="DUS8zbMLbZhFr8fKmbkd-6" style="edgeStyle=orthogonalEdgeStyle;rounded=0;orthogonalLoop=1;jettySize=auto;html=1;exitX=0.5;exitY=1;exitDx=0;exitDy=0;dashed=1;fontFamily=Ubuntu;fontColor=#000000;strokeColor=#000000;strokeWidth=2;" parent="DUS8zbMLbZhFr8fKmbkd-1" edge="1">
                    <mxGeometry relative="1" as="geometry">
                        <mxPoint x="412" y="572" as="sourcePoint"/>
                        <mxPoint x="412" y="572" as="targetPoint"/>
                    </mxGeometry>
                </mxCell>
                <mxCell id="DUS8zbMLbZhFr8fKmbkd-23" style="edgeStyle=orthogonalEdgeStyle;rounded=0;orthogonalLoop=1;jettySize=auto;html=1;exitX=0;exitY=0.75;exitDx=0;exitDy=0;entryX=0.006;entryY=0.654;entryDx=0;entryDy=0;entryPerimeter=0;dashed=1;fontFamily=Ubuntu;fontSize=12;fontColor=#000000;strokeColor=#000000;strokeWidth=2;endArrow=none;endFill=0;" parent="DUS8zbMLbZhFr8fKmbkd-1" source="DUS8zbMLbZhFr8fKmbkd-7" target="DUS8zbMLbZhFr8fKmbkd-20" edge="1">
                    <mxGeometry relative="1" as="geometry"/>
                </mxCell>
                <mxCell id="DUS8zbMLbZhFr8fKmbkd-24" style="edgeStyle=orthogonalEdgeStyle;rounded=0;orthogonalLoop=1;jettySize=auto;html=1;exitX=0.5;exitY=0;exitDx=0;exitDy=0;entryX=0.5;entryY=1;entryDx=0;entryDy=0;fontFamily=Ubuntu;fontSize=12;fontColor=#000000;endArrow=block;endFill=0;strokeColor=#000000;strokeWidth=2;" parent="DUS8zbMLbZhFr8fKmbkd-1" source="DUS8zbMLbZhFr8fKmbkd-7" target="DUS8zbMLbZhFr8fKmbkd-9" edge="1">
                    <mxGeometry relative="1" as="geometry"/>
                </mxCell>
                <mxCell id="DUS8zbMLbZhFr8fKmbkd-7" value="&lt;p style=&quot;margin: 0px ; margin-top: 4px ; text-align: center&quot;&gt;&lt;b&gt;Factory1&lt;/b&gt;&lt;/p&gt;&lt;hr size=&quot;1&quot;&gt;&lt;p style=&quot;margin: 0px ; margin-left: 4px&quot;&gt;...&lt;/p&gt;&lt;hr size=&quot;1&quot;&gt;&lt;p style=&quot;margin: 0px ; margin-left: 4px&quot;&gt;+ createProduct(): Product&lt;/p&gt;" style="verticalAlign=top;align=left;overflow=fill;fontSize=12;fontFamily=Ubuntu;html=1;rounded=1;fontColor=#000000;fillColor=#F0F0F0;strokeColor=#000000;strokeWidth=2;" parent="DUS8zbMLbZhFr8fKmbkd-1" vertex="1">
                    <mxGeometry x="58" y="673" width="160" height="90" as="geometry"/>
                </mxCell>
                <mxCell id="DUS8zbMLbZhFr8fKmbkd-22" style="edgeStyle=orthogonalEdgeStyle;rounded=0;orthogonalLoop=1;jettySize=auto;html=1;exitX=1;exitY=0.75;exitDx=0;exitDy=0;entryX=0;entryY=0;entryDx=174;entryDy=36;entryPerimeter=0;dashed=1;fontFamily=Ubuntu;fontSize=12;fontColor=#000000;strokeColor=#000000;strokeWidth=2;endArrow=none;endFill=0;" parent="DUS8zbMLbZhFr8fKmbkd-1" source="DUS8zbMLbZhFr8fKmbkd-8" target="DUS8zbMLbZhFr8fKmbkd-21" edge="1">
                    <mxGeometry relative="1" as="geometry"/>
                </mxCell>
                <mxCell id="DUS8zbMLbZhFr8fKmbkd-25" style="edgeStyle=orthogonalEdgeStyle;rounded=0;orthogonalLoop=1;jettySize=auto;html=1;exitX=0.5;exitY=0;exitDx=0;exitDy=0;entryX=0.5;entryY=1;entryDx=0;entryDy=0;fontFamily=Ubuntu;fontSize=12;fontColor=#000000;endArrow=block;endFill=0;strokeColor=#000000;strokeWidth=2;" parent="DUS8zbMLbZhFr8fKmbkd-1" source="DUS8zbMLbZhFr8fKmbkd-8" target="DUS8zbMLbZhFr8fKmbkd-9" edge="1">
                    <mxGeometry relative="1" as="geometry"/>
                </mxCell>
                <mxCell id="DUS8zbMLbZhFr8fKmbkd-8" value="&lt;p style=&quot;margin: 0px ; margin-top: 4px ; text-align: center&quot;&gt;&lt;b&gt;Factory2&lt;/b&gt;&lt;/p&gt;&lt;hr size=&quot;1&quot;&gt;&lt;p style=&quot;margin: 0px ; margin-left: 4px&quot;&gt;...&lt;/p&gt;&lt;hr size=&quot;1&quot;&gt;&lt;p style=&quot;margin: 0px ; margin-left: 4px&quot;&gt;+ createProduct(): Product&lt;/p&gt;" style="verticalAlign=top;align=left;overflow=fill;fontSize=12;fontFamily=Ubuntu;html=1;rounded=1;fontColor=#000000;fillColor=#F0F0F0;strokeColor=#000000;strokeWidth=2;" parent="DUS8zbMLbZhFr8fKmbkd-1" vertex="1">
                    <mxGeometry x="266" y="673" width="160" height="90" as="geometry"/>
                </mxCell>
                <mxCell id="DUS8zbMLbZhFr8fKmbkd-26" style="edgeStyle=orthogonalEdgeStyle;rounded=0;orthogonalLoop=1;jettySize=auto;html=1;entryX=0;entryY=0.5;entryDx=0;entryDy=0;fontFamily=Ubuntu;fontSize=12;fontColor=#000000;endArrow=open;endFill=0;strokeColor=#000000;strokeWidth=2;dashed=1;" parent="DUS8zbMLbZhFr8fKmbkd-1" source="DUS8zbMLbZhFr8fKmbkd-9" target="DUS8zbMLbZhFr8fKmbkd-2" edge="1">
                    <mxGeometry relative="1" as="geometry"/>
                </mxCell>
                <mxCell id="DUS8zbMLbZhFr8fKmbkd-9" value="&lt;p style=&quot;margin: 0px ; margin-top: 4px ; text-align: center&quot;&gt;&lt;b&gt;Factory1&lt;/b&gt;&lt;/p&gt;&lt;hr size=&quot;1&quot;&gt;&lt;p style=&quot;margin: 0px ; margin-left: 4px&quot;&gt;...&lt;/p&gt;&lt;hr size=&quot;1&quot;&gt;&lt;p style=&quot;margin: 0px ; margin-left: 4px&quot;&gt;+ createProduct(): Product&lt;/p&gt;&lt;p style=&quot;margin: 0px ; margin-left: 4px&quot;&gt;+ someOperation:Type&lt;/p&gt;" style="verticalAlign=top;align=left;overflow=fill;fontSize=12;fontFamily=Ubuntu;html=1;rounded=1;fontColor=#000000;fillColor=#F0F0F0;strokeColor=#000000;strokeWidth=2;" parent="DUS8zbMLbZhFr8fKmbkd-1" vertex="1">
                    <mxGeometry x="162" y="515" width="160" height="97" as="geometry"/>
                </mxCell>
                <mxCell id="DUS8zbMLbZhFr8fKmbkd-20" value="&lt;font style=&quot;font-size: 12px&quot;&gt;&lt;b&gt;return new&lt;/b&gt; Product1()&lt;/font&gt;" style="shape=note;strokeWidth=2;fontSize=12;size=20;whiteSpace=wrap;html=1;rounded=1;fontFamily=Ubuntu;strokeColor=#000000;fillColor=#F0F0F0;fontColor=#000000;" parent="DUS8zbMLbZhFr8fKmbkd-1" vertex="1">
                    <mxGeometry x="62" y="800" width="174" height="52" as="geometry"/>
                </mxCell>
                <mxCell id="DUS8zbMLbZhFr8fKmbkd-21" value="&lt;font style=&quot;font-size: 12px&quot;&gt;&lt;b&gt;return new&lt;/b&gt; Product2()&lt;/font&gt;" style="shape=note;strokeWidth=2;fontSize=12;size=20;whiteSpace=wrap;html=1;rounded=1;fontFamily=Ubuntu;strokeColor=#000000;fillColor=#F0F0F0;fontColor=#000000;" parent="DUS8zbMLbZhFr8fKmbkd-1" vertex="1">
                    <mxGeometry x="275" y="800" width="174" height="52" as="geometry"/>
                </mxCell>
            </root>
        </mxGraphModel>
    </diagram>
    <diagram id="24hIeM_oF72KPXP3orI6" name="abstract factory">
        <mxGraphModel dx="1429" dy="465" grid="0" gridSize="10" guides="1" tooltips="1" connect="1" arrows="1" fold="1" page="1" pageScale="1" pageWidth="850" pageHeight="1100" background="none" math="0" shadow="0">
            <root>
                <mxCell id="0"/>
                <mxCell id="1" parent="0"/>
                <mxCell id="TpOu0LovX2sEQzh63zsg-75" value="" style="group;fontFamily=Ubuntu;" parent="1" vertex="1" connectable="0">
                    <mxGeometry x="-1" width="849" height="451" as="geometry"/>
                </mxCell>
                <mxCell id="TpOu0LovX2sEQzh63zsg-39" value="«interface»&lt;br&gt;&lt;b&gt;ProductA&lt;/b&gt;" style="html=1;fontFamily=Ubuntu;align=left;fillColor=#F0F0F0;fontColor=#000000;spacing=10;rotation=0;rounded=1;shadow=0;sketch=0;glass=0;strokeWidth=1;strokeColor=#000000;" parent="TpOu0LovX2sEQzh63zsg-75" vertex="1">
                    <mxGeometry x="49.18887601390499" y="203" width="108.21552723059096" height="50" as="geometry"/>
                </mxCell>
                <mxCell id="TpOu0LovX2sEQzh63zsg-40" value="«interface»&lt;br&gt;&lt;b&gt;ProductB&lt;/b&gt;" style="html=1;fontFamily=Ubuntu;align=left;fillColor=#F0F0F0;fontColor=#000000;spacing=10;rotation=0;rounded=1;shadow=0;sketch=0;glass=0;strokeWidth=1;strokeColor=#000000;" parent="TpOu0LovX2sEQzh63zsg-75" vertex="1">
                    <mxGeometry x="191.83661645422941" y="203" width="108.21552723059096" height="50" as="geometry"/>
                </mxCell>
                <mxCell id="TpOu0LovX2sEQzh63zsg-41" value="&lt;p style=&quot;margin: 0px ; margin-top: 4px ; text-align: center&quot;&gt;&lt;i&gt;&amp;lt;&amp;lt;Interface&amp;gt;&amp;gt;&lt;/i&gt;&lt;br&gt;&lt;b&gt;Factory&lt;/b&gt;&lt;/p&gt;&lt;hr size=&quot;1&quot;&gt;&lt;p style=&quot;margin: 0px ; margin-left: 4px&quot;&gt;...&lt;/p&gt;&lt;hr size=&quot;1&quot;&gt;&lt;p style=&quot;margin: 0px ; margin-left: 4px&quot;&gt;+ createProduct1(Type): ProductA&lt;br&gt;+ createProduct2(): ProductB&lt;/p&gt;" style="verticalAlign=top;align=left;overflow=fill;fontSize=12;fontFamily=Ubuntu;html=1;rounded=1;shadow=0;glass=0;sketch=0;fontColor=#000000;strokeColor=#000000;strokeWidth=1;fillColor=#F0F0F0;spacing=5;spacingTop=5;" parent="TpOu0LovX2sEQzh63zsg-75" vertex="1">
                    <mxGeometry x="435.8134414831981" y="172.5" width="189.86906141367322" height="111" as="geometry"/>
                </mxCell>
                <mxCell id="TpOu0LovX2sEQzh63zsg-53" style="edgeStyle=orthogonalEdgeStyle;rounded=0;orthogonalLoop=1;jettySize=auto;html=1;exitX=0.5;exitY=1;exitDx=0;exitDy=0;entryX=0.25;entryY=0;entryDx=0;entryDy=0;fontFamily=Ubuntu;fontSize=12;fontColor=#000000;align=left;strokeWidth=2;strokeColor=#000000;endArrow=block;endFill=0;dashed=1;" parent="TpOu0LovX2sEQzh63zsg-75" source="TpOu0LovX2sEQzh63zsg-46" target="TpOu0LovX2sEQzh63zsg-39" edge="1">
                    <mxGeometry relative="1" as="geometry"/>
                </mxCell>
                <mxCell id="TpOu0LovX2sEQzh63zsg-46" value="&lt;p style=&quot;margin: 0px ; margin-top: 4px ; text-align: center&quot;&gt;&lt;b&gt;ProductALevel1&lt;/b&gt;&lt;/p&gt;&lt;hr size=&quot;1&quot;&gt;&lt;p style=&quot;margin: 0px ; margin-left: 4px&quot;&gt;+ field: Type&lt;/p&gt;&lt;hr size=&quot;1&quot;&gt;&lt;p style=&quot;margin: 0px ; margin-left: 4px&quot;&gt;+ method(): Type&lt;/p&gt;" style="verticalAlign=top;align=left;overflow=fill;fontSize=12;fontFamily=Ubuntu;html=1;rounded=1;shadow=0;glass=0;sketch=0;fontColor=#000000;strokeColor=#000000;strokeWidth=1;fillColor=#F0F0F0;spacing=10;spacingTop=10;" parent="TpOu0LovX2sEQzh63zsg-75" vertex="1">
                    <mxGeometry y="76" width="157.40440324449594" height="90" as="geometry"/>
                </mxCell>
                <mxCell id="TpOu0LovX2sEQzh63zsg-58" style="edgeStyle=orthogonalEdgeStyle;rounded=0;orthogonalLoop=1;jettySize=auto;html=1;exitX=0.5;exitY=1;exitDx=0;exitDy=0;entryX=0.75;entryY=0;entryDx=0;entryDy=0;fontFamily=Ubuntu;fontSize=12;fontColor=#000000;align=left;strokeWidth=2;strokeColor=#000000;endArrow=block;endFill=0;dashed=1;" parent="TpOu0LovX2sEQzh63zsg-75" source="TpOu0LovX2sEQzh63zsg-47" target="TpOu0LovX2sEQzh63zsg-40" edge="1">
                    <mxGeometry relative="1" as="geometry"/>
                </mxCell>
                <mxCell id="TpOu0LovX2sEQzh63zsg-47" value="&lt;p style=&quot;margin: 4px 0px 0px; text-align: center; font-size: 12px;&quot;&gt;&lt;b style=&quot;font-size: 12px;&quot;&gt;ProductBLevel1&lt;/b&gt;&lt;/p&gt;&lt;hr style=&quot;font-size: 12px;&quot;&gt;&lt;p style=&quot;margin: 0px 0px 0px 4px; font-size: 12px;&quot;&gt;+ field: Type&lt;/p&gt;&lt;hr style=&quot;font-size: 12px;&quot;&gt;&lt;p style=&quot;margin: 0px 0px 0px 4px; font-size: 12px;&quot;&gt;+ method(): Type&lt;/p&gt;" style="verticalAlign=top;align=left;overflow=fill;fontSize=12;fontFamily=Ubuntu;html=1;rounded=1;shadow=0;glass=0;sketch=0;fontColor=#000000;strokeColor=#000000;strokeWidth=1;fillColor=#F0F0F0;spacingTop=10;spacing=10;" parent="TpOu0LovX2sEQzh63zsg-75" vertex="1">
                    <mxGeometry x="191.83661645422941" y="74" width="157.40440324449594" height="90" as="geometry"/>
                </mxCell>
                <mxCell id="TpOu0LovX2sEQzh63zsg-60" style="edgeStyle=orthogonalEdgeStyle;rounded=0;orthogonalLoop=1;jettySize=auto;html=1;exitX=0.5;exitY=0;exitDx=0;exitDy=0;entryX=0.25;entryY=1;entryDx=0;entryDy=0;fontFamily=Ubuntu;fontSize=12;fontColor=#000000;endArrow=block;endFill=0;strokeColor=#000000;strokeWidth=2;align=left;dashed=1;" parent="TpOu0LovX2sEQzh63zsg-75" source="TpOu0LovX2sEQzh63zsg-49" target="TpOu0LovX2sEQzh63zsg-39" edge="1">
                    <mxGeometry relative="1" as="geometry"/>
                </mxCell>
                <mxCell id="TpOu0LovX2sEQzh63zsg-49" value="&lt;p style=&quot;margin: 0px ; margin-top: 4px ; text-align: center&quot;&gt;&lt;b&gt;ProductBLevel2&lt;/b&gt;&lt;/p&gt;&lt;hr size=&quot;1&quot;&gt;&lt;p style=&quot;margin: 0px ; margin-left: 4px&quot;&gt;+ field: Type&lt;/p&gt;&lt;hr size=&quot;1&quot;&gt;&lt;p style=&quot;margin: 0px ; margin-left: 4px&quot;&gt;+ method(): Type&lt;/p&gt;" style="verticalAlign=top;align=left;overflow=fill;fontSize=12;fontFamily=Ubuntu;html=1;rounded=1;shadow=0;glass=0;sketch=0;fontColor=#000000;strokeColor=#000000;strokeWidth=1;fillColor=#F0F0F0;spacing=10;spacingTop=10;" parent="TpOu0LovX2sEQzh63zsg-75" vertex="1">
                    <mxGeometry y="287" width="157.40440324449594" height="90" as="geometry"/>
                </mxCell>
                <mxCell id="TpOu0LovX2sEQzh63zsg-59" style="edgeStyle=orthogonalEdgeStyle;rounded=0;orthogonalLoop=1;jettySize=auto;html=1;exitX=0.5;exitY=0;exitDx=0;exitDy=0;entryX=0.75;entryY=1;entryDx=0;entryDy=0;fontFamily=Ubuntu;fontSize=12;fontColor=#000000;endArrow=block;endFill=0;strokeColor=#000000;strokeWidth=2;align=left;dashed=1;" parent="TpOu0LovX2sEQzh63zsg-75" source="TpOu0LovX2sEQzh63zsg-50" target="TpOu0LovX2sEQzh63zsg-40" edge="1">
                    <mxGeometry relative="1" as="geometry"/>
                </mxCell>
                <mxCell id="TpOu0LovX2sEQzh63zsg-50" value="&lt;p style=&quot;margin: 0px ; margin-top: 4px ; text-align: center&quot;&gt;&lt;b&gt;ProductBLevel2&lt;/b&gt;&lt;/p&gt;&lt;hr size=&quot;1&quot;&gt;&lt;p style=&quot;margin: 0px ; margin-left: 4px&quot;&gt;+ field: Type&lt;/p&gt;&lt;hr size=&quot;1&quot;&gt;&lt;p style=&quot;margin: 0px ; margin-left: 4px&quot;&gt;+ method(): Type&lt;/p&gt;" style="verticalAlign=top;align=left;overflow=fill;fontSize=12;fontFamily=Ubuntu;html=1;rounded=1;shadow=0;glass=0;sketch=0;fontColor=#000000;strokeColor=#000000;strokeWidth=1;fillColor=#F0F0F0;spacing=10;spacingTop=10;" parent="TpOu0LovX2sEQzh63zsg-75" vertex="1">
                    <mxGeometry x="191.83661645422941" y="292" width="157.40440324449594" height="90" as="geometry"/>
                </mxCell>
                <mxCell id="TpOu0LovX2sEQzh63zsg-66" style="edgeStyle=orthogonalEdgeStyle;rounded=0;orthogonalLoop=1;jettySize=auto;html=1;fontFamily=Ubuntu;fontSize=12;fontColor=#000000;endArrow=block;endFill=0;strokeColor=#000000;strokeWidth=2;align=left;entryX=0.5;entryY=0;entryDx=0;entryDy=0;dashed=1;" parent="TpOu0LovX2sEQzh63zsg-75" source="TpOu0LovX2sEQzh63zsg-62" target="TpOu0LovX2sEQzh63zsg-41" edge="1">
                    <mxGeometry relative="1" as="geometry">
                        <mxPoint x="527.3047508690614" y="139" as="targetPoint"/>
                    </mxGeometry>
                </mxCell>
                <mxCell id="TpOu0LovX2sEQzh63zsg-73" style="edgeStyle=orthogonalEdgeStyle;rounded=0;orthogonalLoop=1;jettySize=auto;html=1;exitX=0;exitY=0.5;exitDx=0;exitDy=0;entryX=0.5;entryY=0;entryDx=0;entryDy=0;fontFamily=Ubuntu;fontSize=12;fontColor=#000000;endArrow=open;endFill=0;strokeColor=#000000;strokeWidth=2;align=left;" parent="TpOu0LovX2sEQzh63zsg-75" source="TpOu0LovX2sEQzh63zsg-62" target="TpOu0LovX2sEQzh63zsg-47" edge="1">
                    <mxGeometry relative="1" as="geometry"/>
                </mxCell>
                <mxCell id="TpOu0LovX2sEQzh63zsg-74" style="edgeStyle=orthogonalEdgeStyle;rounded=0;orthogonalLoop=1;jettySize=auto;html=1;exitX=0;exitY=0.25;exitDx=0;exitDy=0;entryX=0.5;entryY=0;entryDx=0;entryDy=0;fontFamily=Ubuntu;fontSize=12;fontColor=#000000;endArrow=open;endFill=0;strokeColor=#000000;strokeWidth=2;align=left;" parent="TpOu0LovX2sEQzh63zsg-75" source="TpOu0LovX2sEQzh63zsg-62" target="TpOu0LovX2sEQzh63zsg-46" edge="1">
                    <mxGeometry relative="1" as="geometry"/>
                </mxCell>
                <mxCell id="TpOu0LovX2sEQzh63zsg-62" value="&lt;p style=&quot;margin: 0px ; margin-top: 4px ; text-align: center&quot;&gt;&lt;b&gt;FactoryLevel1&lt;/b&gt;&lt;/p&gt;&lt;hr size=&quot;1&quot;&gt;&lt;p style=&quot;margin: 0px ; margin-left: 4px&quot;&gt;...&lt;/p&gt;&lt;hr size=&quot;1&quot;&gt;&lt;p style=&quot;margin: 0px ; margin-left: 4px&quot;&gt;&lt;span style=&quot;&quot;&gt;+ createProduct1(Type): ProductA&lt;/span&gt;&lt;br style=&quot;&quot;&gt;&lt;span style=&quot;&quot;&gt;+ createProduct2(): ProductB&lt;/span&gt;&lt;br&gt;&lt;/p&gt;" style="verticalAlign=top;align=left;overflow=fill;fontSize=12;fontFamily=Ubuntu;html=1;rounded=1;shadow=0;glass=0;sketch=0;fontColor=#000000;strokeColor=#000000;strokeWidth=1;fillColor=#F0F0F0;" parent="TpOu0LovX2sEQzh63zsg-75" vertex="1">
                    <mxGeometry x="435.8134414831981" width="190.85283893395138" height="99" as="geometry"/>
                </mxCell>
                <mxCell id="TpOu0LovX2sEQzh63zsg-65" style="edgeStyle=orthogonalEdgeStyle;rounded=0;orthogonalLoop=1;jettySize=auto;html=1;exitX=0.5;exitY=0;exitDx=0;exitDy=0;fontFamily=Ubuntu;fontSize=12;fontColor=#000000;endArrow=block;endFill=0;strokeColor=#000000;strokeWidth=2;align=left;dashed=1;" parent="TpOu0LovX2sEQzh63zsg-75" source="TpOu0LovX2sEQzh63zsg-63" edge="1">
                    <mxGeometry relative="1" as="geometry">
                        <mxPoint x="531.2398609501739" y="285" as="targetPoint"/>
                    </mxGeometry>
                </mxCell>
                <mxCell id="TpOu0LovX2sEQzh63zsg-70" style="edgeStyle=orthogonalEdgeStyle;rounded=0;orthogonalLoop=1;jettySize=auto;html=1;exitX=0;exitY=0.5;exitDx=0;exitDy=0;entryX=0.5;entryY=1;entryDx=0;entryDy=0;fontFamily=Ubuntu;fontSize=12;fontColor=#000000;endArrow=open;endFill=0;strokeColor=#000000;strokeWidth=2;align=left;" parent="TpOu0LovX2sEQzh63zsg-75" source="TpOu0LovX2sEQzh63zsg-63" target="TpOu0LovX2sEQzh63zsg-50" edge="1">
                    <mxGeometry relative="1" as="geometry"/>
                </mxCell>
                <mxCell id="TpOu0LovX2sEQzh63zsg-72" style="edgeStyle=orthogonalEdgeStyle;rounded=0;orthogonalLoop=1;jettySize=auto;html=1;exitX=0;exitY=0.75;exitDx=0;exitDy=0;entryX=0.5;entryY=1;entryDx=0;entryDy=0;fontFamily=Ubuntu;fontSize=12;fontColor=#000000;endArrow=open;endFill=0;strokeColor=#000000;strokeWidth=2;align=left;" parent="TpOu0LovX2sEQzh63zsg-75" source="TpOu0LovX2sEQzh63zsg-63" target="TpOu0LovX2sEQzh63zsg-49" edge="1">
                    <mxGeometry relative="1" as="geometry"/>
                </mxCell>
                <mxCell id="TpOu0LovX2sEQzh63zsg-63" value="&lt;p style=&quot;margin: 0px ; margin-top: 4px ; text-align: center&quot;&gt;&lt;b&gt;FactoryLevel2&lt;/b&gt;&lt;/p&gt;&lt;hr size=&quot;1&quot;&gt;&lt;p style=&quot;margin: 0px ; margin-left: 4px&quot;&gt;...&lt;/p&gt;&lt;hr size=&quot;1&quot;&gt;&lt;p style=&quot;margin: 0px ; margin-left: 4px&quot;&gt;&lt;span style=&quot;&quot;&gt;+ createProduct1(Type): ProductA&lt;/span&gt;&lt;br style=&quot;&quot;&gt;&lt;span style=&quot;&quot;&gt;+ createProduct2(): ProductB&lt;/span&gt;&lt;br&gt;&lt;/p&gt;" style="verticalAlign=top;align=left;overflow=fill;fontSize=12;fontFamily=Ubuntu;html=1;rounded=1;shadow=0;glass=0;sketch=0;fontColor=#000000;strokeColor=#000000;strokeWidth=1;fillColor=#F0F0F0;" parent="TpOu0LovX2sEQzh63zsg-75" vertex="1">
                    <mxGeometry x="435.8134414831981" y="356" width="190.85283893395138" height="95" as="geometry"/>
                </mxCell>
                <mxCell id="TpOu0LovX2sEQzh63zsg-69" style="edgeStyle=orthogonalEdgeStyle;rounded=0;orthogonalLoop=1;jettySize=auto;html=1;entryX=1;entryY=0.5;entryDx=0;entryDy=0;fontFamily=Ubuntu;fontSize=12;fontColor=#000000;endArrow=open;endFill=0;strokeColor=#000000;strokeWidth=2;align=left;" parent="TpOu0LovX2sEQzh63zsg-75" source="TpOu0LovX2sEQzh63zsg-67" target="TpOu0LovX2sEQzh63zsg-41" edge="1">
                    <mxGeometry relative="1" as="geometry"/>
                </mxCell>
                <mxCell id="TpOu0LovX2sEQzh63zsg-67" value="&lt;p style=&quot;margin: 0px ; margin-top: 4px ; text-align: center&quot;&gt;&lt;b&gt;Client&lt;/b&gt;&lt;/p&gt;&lt;hr size=&quot;1&quot;&gt;&lt;p style=&quot;margin: 0px ; margin-left: 4px&quot;&gt;+ factory: Factory&lt;/p&gt;&lt;hr size=&quot;1&quot;&gt;&lt;p style=&quot;margin: 0px ; margin-left: 4px&quot;&gt;&lt;span style=&quot;&quot;&gt;+ constructor(factory:Factory)&lt;/span&gt;&lt;br&gt;&lt;/p&gt;&lt;p style=&quot;margin: 0px ; margin-left: 4px&quot;&gt;&lt;span style=&quot;&quot;&gt;+ someOperation()&lt;/span&gt;&lt;/p&gt;" style="verticalAlign=top;align=left;overflow=fill;fontSize=12;fontFamily=Ubuntu;html=1;rounded=1;shadow=0;glass=0;sketch=0;fontColor=#000000;strokeColor=#000000;strokeWidth=1;fillColor=#F0F0F0;" parent="TpOu0LovX2sEQzh63zsg-75" vertex="1">
                    <mxGeometry x="674.8713789107765" y="180.5" width="174.12862108922363" height="95" as="geometry"/>
                </mxCell>
            </root>
        </mxGraphModel>
    </diagram>
    <diagram id="U-bS7oYDZ493zAIPv2bG" name="decorator">
        <mxGraphModel dx="820" dy="465" grid="0" gridSize="10" guides="1" tooltips="1" connect="1" arrows="1" fold="1" page="1" pageScale="1" pageWidth="1100" pageHeight="850" math="0" shadow="0">
            <root>
                <mxCell id="skoKUuDbtoftdBBYOKaS-0"/>
                <mxCell id="skoKUuDbtoftdBBYOKaS-1" parent="skoKUuDbtoftdBBYOKaS-0"/>
                <mxCell id="skoKUuDbtoftdBBYOKaS-8" style="edgeStyle=orthogonalEdgeStyle;rounded=0;orthogonalLoop=1;jettySize=auto;html=1;fontColor=#000000;strokeColor=#000000;strokeWidth=2;endArrow=open;endFill=0;fontFamily=Ubuntu;" parent="skoKUuDbtoftdBBYOKaS-1" source="skoKUuDbtoftdBBYOKaS-2" target="skoKUuDbtoftdBBYOKaS-3" edge="1">
                    <mxGeometry relative="1" as="geometry"/>
                </mxCell>
                <mxCell id="skoKUuDbtoftdBBYOKaS-2" value="client" style="html=1;rounded=1;fillColor=#F0F0F0;fontColor=#000000;strokeWidth=1;strokeColor=#000000;fontFamily=Ubuntu;" parent="skoKUuDbtoftdBBYOKaS-1" vertex="1">
                    <mxGeometry x="174.5" y="49" width="89" height="45" as="geometry"/>
                </mxCell>
                <mxCell id="skoKUuDbtoftdBBYOKaS-3" value="&lt;p style=&quot;margin: 0px ; margin-top: 4px ; text-align: center&quot;&gt;&lt;i&gt;&amp;lt;&amp;lt;Interface&amp;gt;&amp;gt;&lt;/i&gt;&lt;br&gt;&lt;b&gt;Component&lt;/b&gt;&lt;/p&gt;&lt;hr size=&quot;1&quot;&gt;&lt;p style=&quot;margin: 0px ; margin-left: 4px&quot;&gt;...&lt;/p&gt;&lt;hr size=&quot;1&quot;&gt;&lt;p style=&quot;margin: 0px ; margin-left: 4px&quot;&gt;+ execute(): Type&lt;/p&gt;" style="verticalAlign=top;align=left;overflow=fill;fontSize=12;fontFamily=Ubuntu;html=1;rounded=1;fontColor=#000000;fillColor=#F0F0F0;strokeWidth=1;strokeColor=#000000;" parent="skoKUuDbtoftdBBYOKaS-1" vertex="1">
                    <mxGeometry x="157" y="144" width="124" height="98" as="geometry"/>
                </mxCell>
                <mxCell id="skoKUuDbtoftdBBYOKaS-9" style="edgeStyle=orthogonalEdgeStyle;rounded=0;orthogonalLoop=1;jettySize=auto;html=1;exitX=0.5;exitY=0;exitDx=0;exitDy=0;fontColor=#000000;endArrow=block;endFill=0;strokeColor=#000000;strokeWidth=2;dashed=1;fontFamily=Ubuntu;" parent="skoKUuDbtoftdBBYOKaS-1" source="skoKUuDbtoftdBBYOKaS-4" target="skoKUuDbtoftdBBYOKaS-3" edge="1">
                    <mxGeometry relative="1" as="geometry"/>
                </mxCell>
                <mxCell id="skoKUuDbtoftdBBYOKaS-4" value="&lt;p style=&quot;margin: 0px ; margin-top: 4px ; text-align: center&quot;&gt;&lt;b&gt;ConcreteComponent&lt;/b&gt;&lt;/p&gt;&lt;hr size=&quot;1&quot;&gt;&lt;p style=&quot;margin: 0px ; margin-left: 4px&quot;&gt;...&lt;/p&gt;&lt;hr size=&quot;1&quot;&gt;&lt;p style=&quot;margin: 0px ; margin-left: 4px&quot;&gt;+ execute(): Type&lt;/p&gt;" style="verticalAlign=top;align=left;overflow=fill;fontSize=12;fontFamily=Ubuntu;html=1;rounded=1;fontColor=#000000;fillColor=#F0F0F0;strokeWidth=1;strokeColor=#000000;" parent="skoKUuDbtoftdBBYOKaS-1" vertex="1">
                    <mxGeometry x="139" y="287" width="160" height="90" as="geometry"/>
                </mxCell>
                <mxCell id="skoKUuDbtoftdBBYOKaS-11" style="edgeStyle=orthogonalEdgeStyle;rounded=0;orthogonalLoop=1;jettySize=auto;html=1;exitX=0.5;exitY=0;exitDx=0;exitDy=0;entryX=1;entryY=0.25;entryDx=0;entryDy=0;fontColor=#000000;endArrow=open;endFill=0;strokeColor=#000000;strokeWidth=2;startArrow=diamond;startFill=0;fontFamily=Ubuntu;" parent="skoKUuDbtoftdBBYOKaS-1" source="skoKUuDbtoftdBBYOKaS-5" target="skoKUuDbtoftdBBYOKaS-3" edge="1">
                    <mxGeometry relative="1" as="geometry"/>
                </mxCell>
                <mxCell id="skoKUuDbtoftdBBYOKaS-13" style="edgeStyle=orthogonalEdgeStyle;rounded=0;orthogonalLoop=1;jettySize=auto;html=1;exitX=0.25;exitY=0;exitDx=0;exitDy=0;entryX=0.5;entryY=1;entryDx=0;entryDy=0;dashed=1;fontColor=#000000;endArrow=block;endFill=0;strokeColor=#000000;strokeWidth=2;fontFamily=Ubuntu;" parent="skoKUuDbtoftdBBYOKaS-1" source="skoKUuDbtoftdBBYOKaS-5" target="skoKUuDbtoftdBBYOKaS-3" edge="1">
                    <mxGeometry relative="1" as="geometry"/>
                </mxCell>
                <mxCell id="skoKUuDbtoftdBBYOKaS-5" value="&lt;p style=&quot;margin: 0px ; margin-top: 4px ; text-align: center&quot;&gt;&lt;b&gt;Decorator&lt;/b&gt;&lt;/p&gt;&lt;hr size=&quot;1&quot;&gt;&lt;p style=&quot;margin: 0px ; margin-left: 4px&quot;&gt;- wrappee: Component&lt;/p&gt;&lt;hr size=&quot;1&quot;&gt;&lt;p style=&quot;margin: 0px ; margin-left: 4px&quot;&gt;+ execute(): Type&lt;/p&gt;&lt;p style=&quot;margin: 0px ; margin-left: 4px&quot;&gt;+Decorator(com: Component)&lt;/p&gt;" style="verticalAlign=top;align=left;overflow=fill;fontSize=12;fontFamily=Ubuntu;html=1;rounded=1;fontColor=#000000;fillColor=#F0F0F0;strokeWidth=1;strokeColor=#000000;" parent="skoKUuDbtoftdBBYOKaS-1" vertex="1">
                    <mxGeometry x="334" y="287" width="192" height="123" as="geometry"/>
                </mxCell>
                <mxCell id="skoKUuDbtoftdBBYOKaS-6" value="&lt;p style=&quot;margin: 0px ; margin-top: 4px ; text-align: center&quot;&gt;&lt;b&gt;Concrete Decorators&lt;/b&gt;&lt;/p&gt;&lt;hr size=&quot;1&quot;&gt;&lt;p style=&quot;margin: 0px ; margin-left: 4px&quot;&gt;- wrappee: Component&lt;/p&gt;&lt;hr size=&quot;1&quot;&gt;&lt;p style=&quot;margin: 0px ; margin-left: 4px&quot;&gt;+ execute(): Type&lt;/p&gt;&lt;p style=&quot;margin: 0px ; margin-left: 4px&quot;&gt;+Decorator(com: Component)&lt;/p&gt;" style="verticalAlign=top;align=left;overflow=fill;fontSize=12;fontFamily=Ubuntu;html=1;rounded=1;fontColor=#000000;fillColor=#F0F0F0;strokeWidth=1;strokeColor=#000000;" parent="skoKUuDbtoftdBBYOKaS-1" vertex="1">
                    <mxGeometry x="354" y="463" width="192" height="123" as="geometry"/>
                </mxCell>
                <mxCell id="skoKUuDbtoftdBBYOKaS-15" style="edgeStyle=orthogonalEdgeStyle;rounded=0;orthogonalLoop=1;jettySize=auto;html=1;entryX=0.5;entryY=1;entryDx=0;entryDy=0;fontColor=#000000;startArrow=none;startFill=0;endArrow=block;endFill=0;strokeColor=#000000;strokeWidth=2;fontFamily=Ubuntu;" parent="skoKUuDbtoftdBBYOKaS-1" source="skoKUuDbtoftdBBYOKaS-7" target="skoKUuDbtoftdBBYOKaS-5" edge="1">
                    <mxGeometry relative="1" as="geometry"/>
                </mxCell>
                <mxCell id="skoKUuDbtoftdBBYOKaS-7" value="&lt;p style=&quot;margin: 0px ; margin-top: 4px ; text-align: center&quot;&gt;&lt;b&gt;Concrete Decorators&lt;/b&gt;&lt;/p&gt;&lt;hr size=&quot;1&quot;&gt;&lt;p style=&quot;margin: 0px ; margin-left: 4px&quot;&gt;...&lt;/p&gt;&lt;hr size=&quot;1&quot;&gt;&lt;p style=&quot;margin: 0px ; margin-left: 4px&quot;&gt;+ execute(): Type&lt;/p&gt;&lt;p style=&quot;margin: 0px ; margin-left: 4px&quot;&gt;+ extra()&lt;/p&gt;" style="verticalAlign=top;align=left;overflow=fill;fontSize=12;fontFamily=Ubuntu;html=1;rounded=1;fontColor=#000000;fillColor=#F0F0F0;strokeWidth=1;strokeColor=#000000;" parent="skoKUuDbtoftdBBYOKaS-1" vertex="1">
                    <mxGeometry x="334" y="448" width="192" height="123" as="geometry"/>
                </mxCell>
            </root>
        </mxGraphModel>
    </diagram>
</mxfile>